<?xml version="1.0" encoding="UTF-8"?>
<svg xmlns="http://www.w3.org/2000/svg" width="1024" height="559" viewBox="0 0 1024 559">
  <defs>
    <linearGradient id="letterFill" x1="0" y1="0" x2="0" y2="1">
      <stop offset="0%" stop-color="#FF5A00"/>
      <stop offset="30%" stop-color="#FF8A1A"/>
      <stop offset="55%" stop-color="#FFD56A"/>
      <stop offset="80%" stop-color="#FFF6E8"/>
      <stop offset="100%" stop-color="#E8EEF4"/>
    </linearGradient>
    <linearGradient id="flameDeep" x1="0.2" y1="1" x2="0.55" y2="0">
      <stop offset="0%" stop-color="#8B1800"/>
      <stop offset="45%" stop-color="#FF5A00"/>
      <stop offset="100%" stop-color="#FFD56A"/>
    </linearGradient>
    <linearGradient id="flameHot" x1="0" y1="1" x2="1" y2="0">
      <stop offset="0%" stop-color="#C83200"/>
      <stop offset="55%" stop-color="#FF8A1A"/>
      <stop offset="100%" stop-color="#FFE08A"/>
    </linearGradient>
  </defs>
  <g id="flames">
    <path d="M0 0 C5 0 5 0 8.38 2.88 C12.31 7.36 15.61 12.1 19 17 C25.45 23.45 30.36 23.56 39.19 24.62 C46.9 26.83 50.02 32.39 54.09 39.06 C55.03 40.83 55.97 42.61 56.94 44.44 C57.9 46.21 58.85 47.98 59.84 49.81 C62.92 57.22 62.62 61.9 60.38 69.5 C55.76 78.4 49.53 85.44 43 93 C42.19 94.01 42.19 94.01 38.06 99.12 C34.55 103.34 30.91 107.16 27 111 C22.87 115.55 19.42 119.87 16 125 C10.35 132.05 4.38 138.62 -2 145 C-6.98 150.7 -6.98 150.7 -7.06 155.56 C-5.58 161.77 -3.8 167.88 -2 174 C-0.78 180.12 -0.75 185.88 -0.69 192.12 C-0.65 194.46 -0.61 196.79 -0.57 199.2 C-1 206.01 -2.32 210.76 -5 217 C-5.53 218.29 -6.06 219.57 -6.61 220.9 C-10.32 228.48 -14.13 233.32 -20.75 238.62 C-29.81 246.07 -31.01 252.72 -33.14 264.1 C-33.57 266.31 -34 268.53 -34.44 270.81 C-34.81 272.92 -35.18 275.03 -35.56 277.21 C-38.89 290.61 -48.38 297.39 -59.81 304.31 C-80.92 315.79 -101.43 312.82 -123.55 306.39 C-139.19 301.44 -150.81 295.78 -159 281 C-159.99 278.69 -160.98 276.38 -162 274 C-166.36 272.55 -166.36 272.55 -171.75 271.75 C-173.65 271.44 -175.54 271.13 -177.5 270.81 C-179.32 270.54 -181.13 270.27 -183 270 C-200.55 267.31 -213.26 259.83 -227 249 C-228.98 247.68 -230.96 246.36 -233 245 C-238 248 -238 248 -242.88 251.69 C-259.19 263.18 -273.86 269.49 -294.02 266.38 C-306.78 263.51 -318.36 257.82 -330 252 C-330.99 252 -331.98 252 -333 252 C-333.38 253.73 -333.75 255.45 -334.14 257.23 C-341.14 288.65 -341.14 288.65 -353 301 C-353.51 301.77 -353.51 301.77 -356.06 305.69 C-362.62 315.31 -369.5 318.48 -380.52 321.05 C-386.56 322.1 -392.24 322.3 -398.38 322.31 C-400.47 322.33 -402.56 322.35 -404.71 322.36 C-426.28 321.12 -444.48 308.91 -462.06 297.38 C-474.34 289.47 -488.93 280.49 -504 283 C-508.45 286.58 -512.74 290.21 -517 294 C-531.85 307.01 -547.13 315.62 -566.25 321.06 C-572.47 323.16 -574.65 325.24 -579 330 C-590.57 337.44 -599.66 338.39 -613.21 336.13 C-636.11 331.15 -659.86 325.05 -676 307 C-684.12 293.93 -684.28 283 -681 268.06 C-680.81 267.28 -680.81 267.28 -679.88 263.35 C-678.52 256.61 -678.42 252.96 -682 247 C-687.22 245.7 -688.64 247.05 -693.31 249.56 C-712.63 259.59 -731.44 264.63 -753.32 259.84 C-760.28 257.48 -764.77 255.23 -770 250 C-772.24 236.55 -771.8 225.5 -766 213 C-765.23 211.1 -764.47 209.21 -763.68 207.25 C-758.19 194.19 -753.69 186.06 -742 178 C-740.49 176.78 -738.99 175.57 -737.44 174.31 C-730.77 170.25 -723.89 167.56 -716.61 164.8 C-712 163 -712 163 -706 160 C-706.72 158.7 -707.45 157.4 -708.19 156.06 C-709.12 154.39 -710.05 152.72 -711 151 C-711.81 149.54 -712.63 148.07 -713.46 146.56 C-727.09 121.42 -735.05 95.01 -727.25 66.56 C-726.17 63.04 -725.08 59.52 -724 56 C-723.32 53.05 -722.65 50.09 -722 47.12 C-720.14 40.5 -718.81 36.81 -714 32 C-706.16 28.64 -701.04 28.6 -692.56 28.62 C-690.03 28.62 -687.49 28.61 -684.88 28.6 C-676 29.12 -671.89 30.49 -665 36 C-658.53 48.94 -667.23 71.2 -671.21 83.83 C-675.38 97.52 -676.85 111.29 -678.31 125.5 C-678.44 126.71 -678.44 126.71 -679.11 132.8 C-680.16 142.58 -681.16 152.16 -681 162 C-672.16 162.14 -663.6 161.59 -654.81 160.69 C-645.17 159.72 -635.53 158.87 -625.86 158.24 C-624 158.11 -622.13 157.99 -620.21 157.86 C-616.52 157.62 -612.83 157.39 -609.13 157.18 C-607.45 157.07 -605.77 156.96 -604.04 156.84 C-602.54 156.75 -601.03 156.66 -599.48 156.57 C-598.91 156.47 -598.91 156.47 -596 156 C-594 153 -594 153 -592.69 148.44 C-586.34 127.99 -569.41 112.01 -553 99 C-551.91 97.8 -550.81 96.61 -549.69 95.38 C-538.08 84.75 -525.23 83.51 -510.15 83.61 C-492.26 84.75 -478.61 96.11 -467 109 C-457.39 121.23 -448.87 134.13 -440.5 147.22 C-437 152 -437 152 -432 154 C-430.35 154 -428.7 154 -427 154 C-422.16 144.55 -418 134.85 -413.82 125.09 C-406.68 109.66 -397.25 101.11 -384 91 C-382.19 89.6 -380.37 88.19 -378.5 86.75 C-365.3 77.75 -357.78 75.2 -341.81 76.24 C-334.58 75.88 -332.16 71.17 -327.31 66.12 C-317.13 56.3 -308.86 52.31 -295 50 C-290 49 -290 49 -287 46 C-286.38 44.23 -285.76 42.45 -285.12 40.62 C-283 35 -283 35 -278 30 C-261.58 22.75 -240.71 16.47 -223 22 C-215.88 25.63 -209.01 29.53 -202.56 34.25 C-199 36 -199 36 -195 35.25 C-192.06 33.93 -189.12 32.6 -186.19 31.26 C-172.07 24.91 -162.35 24.81 -147 27 C-146.19 26.97 -146.19 26.97 -142.06 26.81 C-134.09 27.11 -129.55 30.64 -123 35 C-116 34 -116 34 -112.12 33 C-94.78 28.8 -76.43 29.21 -60 36 C-55 34 -55 34 -50.25 30.06 C-43.44 25.64 -38.87 24.8 -31.02 23.68 C-18.41 21.55 -11.01 12.86 -3.19 3.38 C-2.14 2.26 -1.08 1.15 0 0 Z " fill="url(#flameDeep)"/>
    <path d="M0 0 C2.54 -0.01 5.07 -0.02 7.68 -0.02 C16.56 0.49 20.67 1.86 27.56 7.38 C34.03 20.32 25.34 42.57 21.36 55.2 C17.18 68.89 15.71 82.67 14.25 96.88 C14.12 98.08 14.12 98.08 13.45 104.18 C12.41 113.96 11.4 123.53 11.56 133.38 C20.4 133.52 28.96 132.96 37.75 132.06 C47.39 131.09 57.03 130.25 66.7 129.61 C68.56 129.49 70.43 129.37 72.35 129.24 C76.04 129 79.74 128.77 83.43 128.55 C85.11 128.44 86.79 128.33 88.52 128.22 C90.03 128.13 91.53 128.04 93.08 127.94 C93.65 127.85 93.65 127.85 96.56 127.38 C98.56 124.38 98.56 124.38 99.88 119.81 C106.22 99.37 123.15 83.38 139.56 70.38 C140.66 69.18 141.75 67.98 142.88 66.75 C152.7 57.75 163.52 55.23 176.5 55.19 C178.63 55.17 180.77 55.16 182.96 55.14 C188.56 55.38 188.56 55.38 193.56 57.38 C193.56 58.03 193.56 58.69 193.56 59.38 C195.21 60.03 196.86 60.69 198.56 61.38 C200.21 62.03 201.86 62.69 203.56 63.38 C203.56 64.03 203.56 64.69 203.56 65.38 C204.88 65.7 206.2 66.03 207.56 66.38 C208.88 67.37 210.2 68.36 211.56 69.38 C211.56 70.03 211.56 70.69 211.56 71.38 C212.88 71.7 214.2 72.03 215.56 72.38 C224.42 80.15 232.82 90.13 236.56 101.38 C238.21 103.03 239.86 104.68 241.56 106.38 C243.56 109 245.49 111.67 247.38 114.38 C247.86 115.07 247.86 115.07 250.33 118.56 C252.56 122.38 252.56 122.38 252.56 127.38 C248.56 130.38 248.56 130.38 241.56 132.38 C226.24 137 211.23 142.34 196.23 147.92 C192.38 149.34 188.51 150.72 184.61 152.02 C180.86 153.28 177.2 154.82 173.56 156.38 C172.59 156.63 172.59 156.63 167.69 157.94 C166 158.41 164.31 158.89 162.56 159.38 C161.56 161.38 161.56 161.38 162.86 165.3 C163.48 166.94 164.11 168.57 164.75 170.25 C171.87 189.14 171.87 189.14 173.5 196.75 C175.54 205.63 178.98 214.01 182.56 222.38 C183.83 225.86 185.05 229.36 186.25 232.88 C186.56 233.78 186.56 233.78 188.14 238.34 C189.56 243.38 189.56 243.38 189.56 250.38 C184.64 255.37 179.25 259.33 173.56 263.38 C171.91 265.02 170.26 266.68 168.56 268.38 C166.91 269.37 165.26 270.36 163.56 271.38 C163.07 271.84 163.07 271.84 160.55 274.2 C155.33 278.36 149.9 280.56 143.75 283.12 C142.63 283.6 142.63 283.6 136.98 285.98 C131.45 288.04 126.37 289.44 120.56 290.38 C120.23 291.37 119.9 292.36 119.56 293.38 C109.19 302.31 102.55 307.12 88.47 306.68 C83.73 306.31 79.18 305.53 74.56 304.38 C74.56 303.71 74.56 303.06 74.56 302.38 C73.42 302.26 72.27 302.15 71.09 302.04 C50.88 299.08 29.16 289.7 16.56 273.38 C11.07 261.24 11.39 254.05 14.56 241.38 C15 237.72 15.35 234.05 15.56 230.38 C15.67 228.77 15.77 227.16 15.88 225.5 C15.56 221.38 15.56 221.38 11.56 216.38 C0.12 216.38 -7.55 219.85 -17.29 225.4 C-26.73 229.89 -35.26 230.73 -45.62 230.56 C-46.74 230.55 -46.74 230.55 -52.36 230.48 C-54.03 230.45 -55.71 230.41 -57.44 230.38 C-57.44 229.72 -57.44 229.06 -57.44 228.38 C-58.72 228.31 -60 228.25 -61.31 228.19 C-67.27 227.24 -71.34 225.59 -76.44 222.38 C-80.32 208.78 -79.39 197.22 -73.44 184.38 C-72.67 182.48 -71.9 180.58 -71.11 178.62 C-65.63 165.56 -61.13 157.44 -49.44 149.38 C-47.93 148.16 -46.43 146.94 -44.88 145.69 C-38.21 141.63 -31.33 138.94 -24.05 136.17 C-19.44 134.38 -19.44 134.38 -13.44 131.38 C-14.16 130.08 -14.88 128.78 -15.63 127.44 C-16.56 125.77 -17.48 124.1 -18.44 122.38 C-19.25 120.91 -20.06 119.45 -20.9 117.94 C-34.53 92.8 -42.48 66.38 -34.69 37.94 C-33.61 34.42 -32.52 30.9 -31.44 27.38 C-30.75 24.42 -30.08 21.46 -29.44 18.5 C-27.58 11.87 -26.25 8.19 -21.44 3.38 C-13.6 0.02 -8.48 -0.03 0 0 Z " fill="url(#flameHot)"/>
    <path d="M0 0 C5 0 5 0 8.38 2.88 C12.31 7.36 15.61 12.1 19 17 C25.45 23.45 30.36 23.56 39.19 24.62 C46.9 26.83 50.02 32.39 54.09 39.06 C54.56 39.95 54.56 39.95 56.94 44.44 C57.9 46.21 58.85 47.98 59.84 49.81 C62.92 57.22 62.62 61.9 60.38 69.5 C55.76 78.4 49.53 85.44 43 93 C41.37 95.02 39.74 97.04 38.06 99.12 C34.55 103.34 30.91 107.16 27 111 C22.87 115.55 19.42 119.87 16 125 C10.35 132.05 4.38 138.62 -2 145 C-6.98 150.7 -6.98 150.7 -7.06 155.56 C-5.58 161.77 -3.8 167.88 -2 174 C-0.78 180.12 -0.75 185.88 -0.69 192.12 C-0.65 194.46 -0.61 196.79 -0.57 199.2 C-1 206.01 -2.32 210.76 -5 217 C-5.53 218.29 -6.06 219.57 -6.61 220.9 C-10.32 228.48 -14.13 233.32 -20.75 238.62 C-29.81 246.07 -31.01 252.72 -33.14 264.1 C-33.57 266.31 -34 268.53 -34.44 270.81 C-34.81 272.92 -35.18 275.03 -35.56 277.21 C-38.89 290.61 -48.38 297.39 -59.81 304.31 C-80.92 315.79 -101.43 312.82 -123.55 306.39 C-137.15 302.09 -148.82 297.27 -157 285 C-156.67 284.34 -156.34 283.68 -156 283 C-151 289 -151 289 -151 291 C-149.68 291.66 -148.36 292.32 -147 293 C-145.21 293.94 -143.43 294.89 -141.59 295.86 C-134.98 299.01 -128.59 301.2 -121.56 303.25 C-119.32 303.92 -117.07 304.58 -114.75 305.27 C-105.48 307.65 -96.25 309.09 -86.69 309.62 C-84.48 309.75 -82.27 309.87 -80 310 C-80 309.34 -80 308.68 -80 308 C-77.36 307.34 -74.72 306.68 -72 306 C-72 303.36 -72 300.72 -72 298 C-74.06 296.95 -76.12 295.9 -78.25 294.81 C-85 291 -85 291 -89 286 C-87.02 286 -85.04 286 -83 286 C-82.67 284.35 -82.34 282.7 -82 281 C-80.01 277.66 -78.01 274.33 -76 271 C-75.55 269.54 -75.09 268.07 -74.62 266.56 C-73 263 -73 263 -69.62 261.38 C-68.86 261.15 -68.86 261.15 -65 260 C-63.95 259.5 -63.95 259.5 -58.62 257 C-53.06 254.48 -47.86 252.62 -42 251 C-39 250.01 -36 249.01 -33 248 C-33 247.34 -33 246.68 -33 246 C-24 237 -24 237 -19.88 233.62 C-16 230 -16 230 -14 224 C-12.68 223.67 -11.36 223.34 -10 223 C-9.67 222.01 -9.67 222.01 -8 217 C-7.32 215.31 -6.64 213.62 -5.94 211.88 C1.09 194.18 -3.36 174.14 -10 157 C-10.66 155.02 -11.32 153.04 -12 151 C-10.87 149.89 -9.73 148.77 -8.56 147.62 C-5 144 -5 144 -4 142 C-3.34 142 -2.68 142 -2 142 C-1.67 141.01 -1.34 140.02 -1 139 C-0.34 139 0.32 139 1 139 C1.66 137.68 2.32 136.36 3 135 C4.4 133.47 5.81 131.95 7.25 130.38 C11.59 125.46 14.7 120.63 18 115 C18.66 115 19.32 115 20 115 C20.33 114.34 20.33 114.34 22 111 C22.99 110.67 23.98 110.34 25 110 C25.33 109.34 25.33 109.34 27 106 C30.32 102.32 33.66 98.66 37 95 C39.68 91.68 42.35 88.35 45 85 C51.64 77.18 51.64 77.18 54 76 C59.19 62.13 59.19 62.13 58 55 C56.43 51.95 54.74 48.96 53 46 C52.67 45.41 52.67 45.41 51 42.41 C45.38 32.38 45.38 32.38 42 29 C36.61 28.13 31.21 27.6 25.78 27.04 C24.2 26.7 22.63 26.35 21 26 C20.01 24.35 19.02 22.7 18 21 C17.34 20.34 17.34 20.34 14 17 C14 16.01 14 15.02 14 14 C13.34 14 12.68 14 12 14 C11.67 12.68 11.34 11.36 11 10 C10.34 10 9.68 10 9 10 C8.17 9.01 8.17 9.01 4 4 C-0.97 5.24 -2.31 7.15 -5.69 10.94 C-6.17 11.48 -6.17 11.48 -8.64 14.21 C-11 17 -11 17 -12 19 C-14.31 19.99 -16.62 20.98 -19 22 C-20.22 22.7 -21.43 23.4 -22.69 24.12 C-27.55 26.88 -30.55 27.01 -36.25 27.12 C-43.76 28.1 -45.87 29.68 -51 35 C-51.66 35.33 -51.66 35.33 -55 37 C-55.5 36.84 -55.5 36.84 -58 36 C-48.83 28.57 -42.57 25.16 -30.92 23.61 C-18.36 21.66 -10.92 12.76 -3.19 3.38 C-2.14 2.26 -1.08 1.15 0 0 Z " fill="#794A45"/>
    <path d="M0 0 C16.39 2.73 29.39 18.25 39 31 C44.47 38.71 49.77 46.53 54.88 54.48 C61.52 64.81 61.52 64.81 67 67 C68.65 67 70.3 67 72 67 C73.32 65.35 74.64 63.7 76 62 C75 69 75 69 74 72 C75.65 73.32 77.3 74.64 79 76 C81.62 78.62 84.23 81.23 86.83 83.87 C91.35 88.42 95.84 92.86 100.69 97.06 C104 100 104 100 105 103 C106.32 103.33 107.64 103.66 109 104 C109.33 104.99 109.66 105.98 110 107 C108.4 109.71 106.73 112.37 105 115 C104.5 115.99 104.5 115.99 102 121 C99.22 123.78 96.43 126.56 93.62 129.31 C89.92 133.09 86.47 137 83 141 C81.29 142.88 79.58 144.75 77.81 146.69 C74.78 150.04 71.82 153.47 69 157 C68.34 157 67.68 157 67 157 C66.34 158.65 65.68 160.3 65 162 C64.01 162.33 63.02 162.66 62 163 C61.34 164.32 60.68 165.64 60 167 C55.07 171.93 51.14 173.93 45 177 C43.35 178.65 41.7 180.3 40 182 C34 185 34 185 31 186 C30.67 186.99 30.34 187.98 30 189 C29.34 189 28.68 189 28 189 C28 189.66 28 190.32 28 191 C26.02 191.99 24.04 192.98 22 194 C21.34 194.99 20.68 195.98 20 197 C24.62 199.64 29.24 202.28 34 205 C34 205.66 34 206.32 34 207 C28 205 28 205 22.56 202.12 C13.6 197.86 5.03 194.33 -5 196 C-9.45 199.58 -13.74 203.21 -18 207 C-32.85 220.01 -48.13 228.62 -67.25 234.06 C-73.47 236.16 -75.65 238.24 -80 243 C-91.57 250.44 -100.66 251.39 -114.21 249.13 C-137.11 244.15 -160.86 238.05 -177 220 C-185.12 206.93 -185.28 196 -182 181.06 C-181.63 179.51 -181.26 177.95 -180.88 176.35 C-179.52 169.61 -179.42 165.96 -183 160 C-188.22 158.7 -189.64 160.05 -194.31 162.56 C-213.62 172.58 -232.57 177.74 -254.42 172.77 C-265.33 169.01 -265.33 169.01 -268 165 C-266.02 165.66 -264.04 166.32 -262 167 C-258.34 168.01 -254.67 169.02 -251 170 C-251 170.66 -251 171.32 -251 172 C-231.31 171.69 -217.39 169.68 -200 160 C-192.96 157.65 -189.61 157 -182 157 C-176.45 163.66 -176.31 163.96 -177 172 C-177.8 179.3 -178.66 186.39 -180.19 193.56 C-181.65 201.54 -179.43 207.89 -176 215 C-162.1 232.7 -140.09 238.7 -119 244 C-119 244.66 -119 245.32 -119 246 C-104.04 247.87 -93.62 249.06 -81 240 C-79.35 238.35 -77.7 236.7 -76 235 C-75.34 235 -74.68 235 -74 235 C-73.67 233.68 -73.34 232.36 -73 231 C-71.27 230.6 -69.54 230.2 -67.76 229.79 C-61.18 228.05 -55.11 225.89 -48.81 223.31 C-46.8 222.5 -44.78 221.7 -42.71 220.86 C-36.81 217.9 -32.8 214.48 -28 210 C-26.02 209.01 -24.04 208.02 -22 207 C-20.35 205.35 -18.7 203.7 -17 202 C-14.92 200.39 -12.83 198.78 -10.69 197.12 C-8.81 195.43 -6.93 193.74 -5 192 C-5 184.29 -6.7 179.09 -9.19 171.81 C-9.96 169.51 -10.74 167.21 -11.54 164.83 C-13.84 158.46 -16.34 152.23 -19 146 C-21 141 -21 141 -21.84 136.53 C-23.22 129.97 -25.33 123.88 -27.56 117.56 C-28.37 115.27 -29.17 112.99 -30 110.63 C-30.66 108.77 -31.32 106.91 -32 105 C-32.33 104.01 -32.66 103.02 -33 102 C-27.98 98.99 -23.59 97.61 -18 96 C-17.18 95.67 -17.18 95.67 -13 94 C-10 93 -7 92 -4 91 C0.69 89.34 5.38 87.68 10.06 86 C11.27 85.57 11.27 85.57 17.41 83.38 C21.07 82.06 24.73 80.72 28.37 79.34 C32.21 77.92 36.08 76.69 40 75.5 C45.41 73.83 50.73 72.07 56 70 C56.5 69.84 56.5 69.84 59 69 C57.02 63.05 54.61 59.05 51.12 53.88 C50.08 52.3 49.03 50.73 47.95 49.12 C45 45 45 45 41 41 C40.34 39.35 39.68 37.7 39 36 C25.93 16.96 25.93 16.96 18 13 C16.35 11.35 14.7 9.7 13 8 C12.01 7.67 11.02 7.34 10 7 C10 6.34 10 5.68 10 5 C7.69 4.34 5.38 3.68 3 3 C2.01 2.01 1.02 1.02 0 0 Z " fill="#E0401E"/>
    <path d="M0 0 C2.54 -0.01 5.07 -0.02 7.68 -0.02 C16.56 0.49 20.67 1.86 27.56 7.38 C34.03 20.32 25.34 42.57 21.36 55.2 C17.18 68.89 15.71 82.67 14.25 96.88 C14.12 98.08 14.12 98.08 13.45 104.18 C12.41 113.96 11.4 123.53 11.56 133.38 C20.4 133.52 28.96 132.96 37.75 132.06 C47.39 131.09 57.03 130.25 66.7 129.61 C68.56 129.49 70.43 129.37 72.35 129.24 C76.04 129 79.74 128.77 83.43 128.55 C85.11 128.44 86.79 128.33 88.52 128.22 C90.03 128.13 91.53 128.04 93.08 127.94 C93.65 127.85 93.65 127.85 96.56 127.38 C98.56 124.38 98.56 124.38 99.88 119.81 C103.25 108.95 108.83 97.86 118.56 91.38 C116.56 95.38 116.56 95.38 114.56 97.38 C114.13 98.92 113.7 100.47 113.25 102.06 C111.64 107.13 109.98 110.35 106.56 114.38 C105.9 114.38 105.24 114.38 104.56 114.38 C104.56 116.02 104.56 117.68 104.56 119.38 C103.9 121.36 103.24 123.33 102.56 125.38 C101.9 125.38 101.24 125.38 100.56 125.38 C100.23 126.69 99.9 128.01 99.56 129.38 C97.21 131.73 89.21 131.07 86.38 131.25 C75.89 131.96 65.46 132.85 55 133.94 C39.88 135.49 24.78 136.77 9.56 136.38 C8.56 135.38 8.56 135.38 8.31 131.12 C8.52 125.52 9.09 120.37 9.92 114.84 C11.84 101.74 13.27 88.59 14.67 75.43 C14.87 73.61 15.07 71.79 15.28 69.92 C15.46 68.3 15.63 66.68 15.81 65.01 C16.59 60.21 17.98 55.96 19.56 51.38 C20.33 47.43 21.1 43.48 21.8 39.52 C22.51 35.64 23.38 31.78 24.25 27.94 C25.82 20.09 26.54 14.83 23.56 7.38 C16.25 3.2 8.04 3.97 -0.12 4.06 C-1.53 4.06 -2.93 4.06 -4.37 4.05 C-10.27 4.08 -14.91 4.16 -20.44 6.38 C-23.91 11.99 -25.27 17.37 -26.44 23.81 C-27.45 29.01 -28.4 33.28 -30.56 38.12 C-38.59 56.31 -35.06 78.47 -28.62 96.44 C-25.78 102.87 -22.63 109.11 -19.44 115.38 C-16.44 121.38 -16.44 121.38 -16.44 123.38 C-15.45 123.7 -14.46 124.03 -13.44 124.38 C-10.44 129.38 -10.44 129.38 -11.44 134.38 C-16.07 136.47 -16.07 136.47 -22 138.44 C-31.94 141.77 -40.17 144.89 -48.12 151.81 C-49.2 152.74 -50.28 153.67 -51.39 154.62 C-58.99 161.49 -58.99 161.49 -61.44 166.38 C-62.1 166.38 -62.76 166.38 -63.44 166.38 C-64.1 168.69 -64.76 171 -65.44 173.38 C-67.4 177.72 -69.4 182.06 -71.44 186.38 C-72.43 188.69 -73.42 191 -74.44 193.38 C-74.6 193.7 -74.6 193.7 -75.44 195.38 C-75.54 199.33 -75.57 203.29 -75.56 207.25 C-75.57 209.41 -75.57 211.58 -75.57 213.8 C-75.44 219.38 -75.44 219.38 -74.44 223.38 C-75.43 222.72 -76.42 222.06 -77.44 221.38 C-79.68 207.93 -79.23 196.88 -73.44 184.38 C-72.67 182.48 -71.9 180.58 -71.11 178.62 C-65.63 165.56 -61.13 157.44 -49.44 149.38 C-47.93 148.16 -46.43 146.94 -44.88 145.69 C-38.21 141.63 -31.33 138.94 -24.05 136.17 C-19.44 134.38 -19.44 134.38 -13.44 131.38 C-14.16 130.08 -14.88 128.78 -15.63 127.44 C-16.56 125.77 -17.48 124.1 -18.44 122.38 C-19.25 120.91 -20.06 119.45 -20.9 117.94 C-34.53 92.8 -42.48 66.38 -34.69 37.94 C-33.61 34.42 -32.52 30.9 -31.44 27.38 C-30.75 24.42 -30.08 21.46 -29.44 18.5 C-27.58 11.87 -26.25 8.19 -21.44 3.38 C-13.6 0.02 -8.48 -0.03 0 0 Z " fill="#871E18"/>
    <path d="M0 0 C5 0 5 0 8.38 2.88 C12.31 7.36 15.61 12.1 19 17 C25.45 23.45 30.36 23.56 39.19 24.62 C46.9 26.83 50.02 32.39 54.09 39.06 C54.56 39.95 54.56 39.95 56.94 44.44 C57.9 46.21 58.85 47.98 59.84 49.81 C62.92 57.22 62.62 61.9 60.38 69.5 C55.76 78.4 49.53 85.44 43 93 C41.37 95.02 39.74 97.04 38.06 99.12 C34.55 103.34 30.91 107.16 27 111 C22.87 115.55 19.42 119.87 16 125 C10.35 132.05 4.38 138.62 -2 145 C-6.98 150.7 -6.98 150.7 -7.06 155.56 C-5.58 161.77 -3.8 167.88 -2 174 C-0.78 180.12 -0.75 185.88 -0.69 192.12 C-0.65 194.46 -0.61 196.79 -0.57 199.2 C-1 206.01 -2.32 210.76 -5 217 C-5.56 218.31 -6.11 219.62 -6.68 220.97 C-11.56 230.78 -17.13 236.55 -26 243 C-26.99 242.67 -27.98 242.34 -29 242 C-24 237 -24 237 -19.81 233.56 C-16 230 -16 230 -14 224 C-12.68 223.67 -11.36 223.34 -10 223 C-9.67 222.01 -9.67 222.01 -8 217 C-7.32 215.31 -6.64 213.62 -5.94 211.88 C1.09 194.18 -3.36 174.14 -10 157 C-10.66 155.02 -11.32 153.04 -12 151 C-10.87 149.89 -9.73 148.77 -8.56 147.62 C-5 144 -5 144 -4 142 C-3.34 142 -2.68 142 -2 142 C-1.67 141.01 -1.34 140.02 -1 139 C-0.34 139 0.32 139 1 139 C1.66 137.68 2.32 136.36 3 135 C3.7 134.24 3.7 134.24 7.25 130.38 C11.59 125.46 14.7 120.63 18 115 C18.66 115 19.32 115 20 115 C20.33 114.34 20.33 114.34 22 111 C22.99 110.67 23.98 110.34 25 110 C25.33 109.34 25.33 109.34 27 106 C30.32 102.32 33.66 98.66 37 95 C39.68 91.68 42.35 88.35 45 85 C51.64 77.18 51.64 77.18 54 76 C59.19 62.13 59.19 62.13 58 55 C56.43 51.95 54.74 48.96 53 46 C52.67 45.41 52.67 45.41 51 42.41 C45.38 32.38 45.38 32.38 42 29 C36.61 28.13 31.21 27.6 25.78 27.04 C24.2 26.7 22.63 26.35 21 26 C20.01 24.35 19.02 22.7 18 21 C16.68 19.68 15.36 18.36 14 17 C14 16.01 14 15.02 14 14 C13.34 14 12.68 14 12 14 C11.84 13.34 11.84 13.34 11 10 C10.34 10 9.68 10 9 10 C7.35 8.02 5.7 6.04 4 4 C-0.97 5.24 -2.31 7.15 -5.69 10.94 C-6.66 12.02 -7.63 13.1 -8.64 14.21 C-11 17 -11 17 -12 19 C-14.31 19.99 -16.62 20.98 -19 22 C-20.22 22.7 -21.43 23.4 -22.69 24.12 C-27.55 26.88 -30.55 27.01 -36.25 27.12 C-43.76 28.1 -45.87 29.68 -51 35 C-52.32 35.66 -53.64 36.32 -55 37 C-55.99 36.67 -56.98 36.34 -58 36 C-48.83 28.57 -42.57 25.16 -30.92 23.61 C-18.36 21.66 -10.92 12.76 -3.19 3.38 C-2.14 2.26 -1.08 1.15 0 0 Z " fill="url(#flameDeep)"/>
    <path d="M0 0 C2.54 -0.01 5.07 -0.02 7.68 -0.02 C16.56 0.49 20.67 1.86 27.56 7.38 C34.03 20.32 25.34 42.57 21.36 55.2 C17.18 68.89 15.71 82.67 14.25 96.88 C14.12 98.08 14.12 98.08 13.45 104.18 C12.41 113.96 11.4 123.53 11.56 133.38 C20.4 133.52 28.96 132.96 37.75 132.06 C47.39 131.09 57.03 130.25 66.7 129.61 C68.56 129.49 70.43 129.37 72.35 129.24 C76.04 129 79.74 128.77 83.43 128.55 C85.11 128.44 86.79 128.33 88.52 128.22 C90.03 128.13 91.53 128.04 93.08 127.94 C93.65 127.85 93.65 127.85 96.56 127.38 C98.56 124.38 98.56 124.38 99.88 119.81 C103.25 108.95 108.83 97.86 118.56 91.38 C116.56 95.38 116.56 95.38 114.56 97.38 C114.13 98.92 113.7 100.47 113.25 102.06 C111.64 107.13 109.98 110.35 106.56 114.38 C105.9 114.38 105.24 114.38 104.56 114.38 C104.56 116.02 104.56 117.68 104.56 119.38 C103.9 121.36 103.24 123.33 102.56 125.38 C101.9 125.38 101.24 125.38 100.56 125.38 C100.23 126.69 99.9 128.01 99.56 129.38 C97.21 131.73 89.21 131.07 86.38 131.25 C75.89 131.96 65.46 132.85 55 133.94 C14.68 138.08 14.68 138.08 3.56 134.38 C0.23 134.3 -3.11 134.28 -6.44 134.38 C-6.44 133.72 -6.44 133.06 -6.44 132.38 C-8.75 133.37 -11.06 134.36 -13.44 135.38 C-16.37 136.36 -19.31 137.31 -22.25 138.25 C-36.99 143.17 -54.11 151.73 -61.44 166.38 C-62.1 166.38 -62.76 166.38 -63.44 166.38 C-64.1 168.69 -64.76 171 -65.44 173.38 C-67.4 177.72 -69.4 182.06 -71.44 186.38 C-72.43 188.69 -73.42 191 -74.44 193.38 C-74.6 193.7 -74.6 193.7 -75.44 195.38 C-75.54 199.33 -75.57 203.29 -75.56 207.25 C-75.57 209.41 -75.57 211.58 -75.57 213.8 C-75.44 219.38 -75.44 219.38 -74.44 223.38 C-75.43 222.72 -76.42 222.06 -77.44 221.38 C-79.68 207.93 -79.23 196.88 -73.44 184.38 C-72.67 182.48 -71.9 180.58 -71.11 178.62 C-65.63 165.56 -61.13 157.44 -49.44 149.38 C-47.93 148.16 -46.43 146.94 -44.88 145.69 C-38.21 141.63 -31.33 138.94 -24.05 136.17 C-19.44 134.38 -19.44 134.38 -13.44 131.38 C-14.16 130.08 -14.88 128.78 -15.63 127.44 C-16.56 125.77 -17.48 124.1 -18.44 122.38 C-19.25 120.91 -20.06 119.45 -20.9 117.94 C-34.53 92.8 -42.48 66.38 -34.69 37.94 C-33.61 34.42 -32.52 30.9 -31.44 27.38 C-30.75 24.42 -30.08 21.46 -29.44 18.5 C-27.58 11.87 -26.25 8.19 -21.44 3.38 C-13.6 0.02 -8.48 -0.03 0 0 Z " fill="url(#flameHot)"/>
    <path d="M0 0 C2.23 0.47 4.47 0.94 6.77 1.43 C12.19 2.69 12.19 2.69 14.19 3.69 C14.19 5.01 14.19 6.33 14.19 7.69 C13.15 7.46 13.15 7.46 7.88 6.31 C-10.02 2.53 -10.02 2.53 -15.81 3.69 C-18.23 6.96 -20.56 10.3 -22.81 13.69 C-25.88 16.75 -28.95 19.8 -32.06 22.81 C-36.99 27.87 -41.35 33.22 -45.81 38.69 C-48.46 41.37 -51.12 44.04 -53.81 46.69 C-56.15 49.35 -58.49 52.01 -60.81 54.69 C-62.46 56.34 -64.11 57.99 -65.81 59.69 C-66.47 59.69 -67.13 59.69 -67.81 59.69 C-68.47 61.01 -69.13 62.33 -69.81 63.69 C-71.46 64.68 -73.11 65.67 -74.81 66.69 C-75.47 67.68 -76.13 68.67 -76.81 69.69 C-77.64 70.02 -77.64 70.02 -81.81 71.69 C-83.46 73.34 -85.11 74.99 -86.81 76.69 C-90.62 79.32 -94.51 81.8 -98.41 84.29 C-101.81 86.69 -101.81 86.69 -104.81 90.69 C-104.15 90.69 -103.49 90.69 -102.81 90.69 C-102.81 91.35 -102.81 92.01 -102.81 92.69 C-101.16 93.35 -99.51 94.01 -97.81 94.69 C-97.48 95.35 -97.15 96.01 -96.81 96.69 C-101.59 94.78 -105.5 92.46 -109.81 89.69 C-105.81 84.69 -105.81 84.69 -100.81 83.69 C-100.81 83.03 -100.81 82.37 -100.81 81.69 C-94.67 75.9 -94.67 75.9 -89.81 74.69 C-88.16 73.04 -86.51 71.39 -84.81 69.69 C-78.81 65.69 -78.81 65.69 -74.69 63.81 C-70.81 61.69 -70.81 61.69 -66.81 55.69 C-65.49 54.37 -64.17 53.05 -62.81 51.69 C-61.86 50.59 -60.92 49.5 -59.94 48.38 C-56.34 44.28 -52.66 40.29 -48.94 36.31 C-35.02 21.45 -35.02 21.45 -28.81 13.69 C-28.15 13.69 -27.49 13.69 -26.81 13.69 C-26.15 11.71 -25.49 9.73 -24.81 7.69 C-22.62 3.44 -22.62 3.44 -19.81 -0.31 C-11.87 -2.58 -7.98 -1.72 0 0 Z " fill="#CC563A"/>
    <path d="M0 0 C3.56 1.75 3.56 1.75 7.56 1 C10.5 -0.32 13.44 -1.65 16.38 -2.99 C30.49 -9.34 40.21 -9.44 55.56 -7.25 C56.38 -7.28 56.38 -7.28 60.5 -7.44 C68.47 -7.14 73.02 -3.61 79.56 0.75 C80.22 1.08 80.22 1.08 83.56 2.75 C76.1 4.24 72.73 0.86 66.56 -3.25 C61.56 -4.25 61.56 -4.25 56.44 -4.25 C49.56 -4.25 49.56 -4.25 45.19 -4.75 C30.47 -6.3 20.94 -1.95 8.29 5.14 C7.68 5.41 7.68 5.41 4.56 6.75 C-0.82 4.06 -5.63 0.63 -10.61 -2.74 C-21.91 -10.15 -31.56 -11.6 -45 -9.3 C-45.97 -9.08 -45.97 -9.08 -50.88 -8 C-52.81 -7.58 -54.75 -7.16 -56.75 -6.73 C-65.95 -4.33 -72.95 -2.34 -78.44 5.75 C-78.77 6.91 -78.77 6.91 -80.44 12.75 C-81.1 12.75 -81.76 12.75 -82.44 12.75 C-83.1 14.4 -83.76 16.05 -84.44 17.75 C-84.6 18.08 -84.6 18.08 -85.44 19.75 C-90.94 20.33 -96.45 20.65 -101.98 20.99 C-111.48 22.31 -115.48 26.52 -121.44 33.75 C-122.72 35.19 -124 36.64 -125.31 38.12 C-128.44 41.75 -128.44 41.75 -129.44 43.75 C-135.63 44.75 -141.5 44.7 -147.75 44.44 C-169.39 44.35 -186.27 63.08 -201.44 76.75 C-201.77 76.91 -201.77 76.91 -203.44 77.75 C-198.91 68.69 -188.48 61.73 -180.44 55.75 C-178.89 54.59 -177.34 53.44 -175.75 52.25 C-162.55 43.55 -155.09 40.96 -139.25 41.99 C-132.02 41.63 -129.6 36.92 -124.75 31.88 C-114.57 22.05 -106.3 18.06 -92.44 15.75 C-87.44 14.75 -87.44 14.75 -84.44 11.75 C-83.82 9.98 -83.2 8.2 -82.56 6.38 C-80.44 0.75 -80.44 0.75 -75.44 -4.25 C-48.25 -16.25 -24.4 -17.87 0 0 Z " fill="#841F17"/>
    <path d="M0 0 C0 5.17 -3.8 8.19 -7 12 C-7.66 12 -8.32 12 -9 12 C-9.66 14.31 -10.32 16.62 -11 19 C-13.64 22.32 -13.64 22.32 -16.81 25.56 C-20.74 29.62 -24.37 33.65 -28 38 C-29.32 39.32 -30.64 40.64 -32 42 C-33.32 43.98 -34.64 45.96 -36 48 C-41.65 55.05 -47.62 61.62 -54 68 C-58.98 73.7 -58.98 73.7 -59.06 78.56 C-57.58 84.77 -55.8 90.88 -54 97 C-52.78 103.12 -52.75 108.88 -52.69 115.12 C-52.65 117.46 -52.61 119.79 -52.57 122.2 C-53 129.01 -54.32 133.76 -57 140 C-57.56 141.31 -58.11 142.62 -58.68 143.97 C-63.56 153.78 -69.13 159.55 -78 166 C-78.99 165.67 -79.98 165.34 -81 165 C-76 160 -76 160 -71.81 156.56 C-68 153 -68 153 -66 147 C-64.68 146.67 -63.36 146.34 -62 146 C-61.34 144.02 -60.68 142.04 -60 140 C-59.32 138.31 -58.64 136.62 -57.94 134.88 C-50.91 117.18 -55.36 97.14 -62 80 C-62.33 79.01 -62.33 79.01 -64 74 C-62.87 72.89 -61.73 71.77 -60.56 70.62 C-57 67 -57 67 -56 65 C-55.34 65 -54.68 65 -54 65 C-53.67 64.01 -53.34 63.02 -53 62 C-52.34 62 -51.68 62 -51 62 C-50.34 60.68 -49.68 59.36 -49 58 C-47.6 56.47 -46.2 54.95 -44.75 53.38 C-40.41 48.46 -37.3 43.63 -34 38 C-33.34 38 -32.68 38 -32 38 C-31.34 36.68 -30.68 35.36 -30 34 C-29.01 33.67 -28.02 33.34 -27 33 C-26.34 31.68 -25.68 30.36 -25 29 C-21.68 25.32 -18.34 21.66 -15 18 C-12.32 14.68 -9.65 11.35 -7 8 C-4.68 5.32 -2.35 2.65 0 0 Z " fill="#88492F"/>
    <path d="M0 0 C5.55 6.66 5.69 6.96 5 15 C4.2 22.3 3.34 29.39 1.81 36.56 C0.35 44.54 2.57 50.89 6 58 C19.9 75.7 41.91 81.7 63 87 C63 87.66 63 88.32 63 89 C77.96 90.87 88.38 92.06 101 83 C102.65 81.35 104.3 79.7 106 78 C106.66 78 107.32 78 108 78 C108.33 76.68 108.66 75.36 109 74 C110.73 73.6 112.46 73.2 114.24 72.79 C120.82 71.05 126.89 68.89 133.19 66.31 C134.19 65.91 134.19 65.91 139.29 63.86 C145.19 60.9 149.2 57.48 154 53 C155.98 52.01 157.96 51.02 160 50 C160.82 49.18 160.82 49.18 165 45 C176.18 34.14 176.18 34.14 182.94 33.62 C187 35 187 35 193 38 C193.64 38.06 193.64 38.06 196.88 38.38 C201.94 39.14 204.79 41.13 209 44 C211.33 45.35 213.66 46.68 216 48 C216 48.66 216 49.32 216 50 C210 48 210 48 204.56 45.12 C195.6 40.86 187.03 37.33 177 39 C172.55 42.58 168.26 46.21 164 50 C149.15 63.01 133.87 71.62 114.75 77.06 C108.53 79.16 106.35 81.24 102 86 C90.43 93.44 81.34 94.39 67.79 92.13 C44.89 87.15 21.14 81.05 5 63 C-3.12 49.93 -3.28 39 0 24.06 C0.19 23.28 0.19 23.28 1.12 19.35 C2.48 12.61 2.58 8.96 -1 3 C-6.22 1.7 -7.64 3.05 -12.31 5.56 C-31.62 15.58 -50.57 20.74 -72.42 15.77 C-83.33 12.01 -83.33 12.01 -86 8 C-84.02 8.66 -82.04 9.32 -80 10 C-76.34 11.01 -72.67 12.02 -69 13 C-69 13.66 -69 14.32 -69 15 C-49.31 14.69 -35.39 12.68 -18 3 C-10.96 0.65 -7.61 0 0 0 Z " fill="url(#flameDeep)"/>
    <path d="M0 0 C5.23 0.75 10.42 1.55 15.62 2.44 C17.08 2.68 18.54 2.93 20.04 3.18 C24 4 24 4 29 6 C36.84 19.85 36.84 19.85 37 28 C37.66 28 38.32 28 39 28 C47 44 47 44 49.02 48.41 C51 52 51 52 55 54 C54.01 54.66 53.02 55.32 52 56 C50.93 60.08 49.99 64.19 49.12 68.31 C45.77 83.32 42.8 93.76 32 105 C30.99 106.55 29.98 108.09 28.94 109.69 C22.38 119.31 15.5 122.48 4.48 125.05 C-1.56 126.1 -7.24 126.3 -13.38 126.31 C-14.42 126.32 -14.42 126.32 -19.71 126.36 C-41.7 125.09 -62.86 112.19 -80 99 C-80 98.01 -80 97.02 -80 96 C-80.66 96 -81.32 96 -82 96 C-83.32 94.68 -84.64 93.36 -86 92 C-86.66 91.67 -87.32 91.34 -88 91 C-88 90.34 -88 89.68 -88 89 C-88.66 89 -89.32 89 -90 89 C-86.64 82.29 -79.93 79.16 -73.62 75.38 C-70 73 -70 73 -66 68 C-65.34 67.84 -65.34 67.84 -62 67 C-60.35 65.35 -58.7 63.7 -57 62 C-55.74 60.91 -54.48 59.81 -53.19 58.69 C-46.24 52.57 -40.05 45.99 -34 39 C-30.67 35.33 -27.33 31.67 -24 28 C-20.44 23.95 -16.9 19.89 -13.38 15.81 C-10.69 12.78 -7.87 9.87 -5 7 C-3.68 5.02 -2.36 3.04 -1 1 C-0.67 0.67 -0.34 0.34 0 0 Z " fill="url(#flameHot)"/>
    <path d="M0 0 C7.82 1.12 9.39 2.84 15 8 C16.65 8.66 18.3 9.32 20 10 C20 10.66 20 11.32 20 12 C21.65 12.33 23.3 12.66 25 13 C25.16 13.33 25.16 13.33 26 15 C29.31 16.39 32.64 17.73 36 19 C36 19.66 36 20.32 36 21 C40.46 22.12 44.73 22.47 49.31 22.88 C52.88 23.24 56.44 23.62 60 24 C60.74 24.07 60.74 24.07 64.51 24.45 C68.5 25 68.5 25 75 27 C78 32 78 32 79 37 C78.67 37.99 78.34 38.98 78 40 C77.77 39.28 77.77 39.28 76.61 35.65 C74 31 74 31 69.54 29.35 C67.78 29.11 66.01 28.87 64.19 28.62 C62.3 28.33 60.41 28.04 58.46 27.74 C57.56 27.62 57.56 27.62 53 27 C35.45 24.31 22.74 16.83 9 6 C7.02 4.68 5.04 3.36 3 2 C-2 5 -2 5 -6.88 8.69 C-23.19 20.18 -37.86 26.49 -58.02 23.38 C-70.78 20.51 -82.36 14.82 -94 9 C-88.38 7.6 -86.04 9.7 -80.94 12.31 C-73.91 15.77 -67.85 18.12 -60 19 C-59.34 19.33 -58.68 19.66 -58 20 C-54.67 20.15 -51.33 20.22 -48 20.25 C-47.09 20.26 -47.09 20.26 -42.5 20.33 C-32.37 19.72 -25.55 16.18 -17 11 C-16.01 10.83 -16.01 10.83 -11 10 C-11 9.34 -11 8.68 -11 8 C-9.93 7.42 -8.86 6.85 -7.75 6.25 C-4 4 -4 4 0 0 Z " fill="#8C3614"/>
    <path d="M0 0 C0.33 0 0.66 0 1 0 C1 7 1 7 0 12 C-0.98 34.52 5.79 53.16 16 73 C19 79 19 79 19 81 C19.99 81.33 20.98 81.66 22 82 C25 87 25 87 24 92 C19.37 94.1 19.37 94.1 13.44 96.06 C3.5 99.4 -4.73 102.52 -12.69 109.44 C-13.76 110.36 -14.84 111.29 -15.95 112.25 C-23.56 119.11 -23.56 119.11 -26 124 C-26.66 124 -27.32 124 -28 124 C-28.66 126.31 -29.32 128.62 -30 131 C-31.97 135.35 -33.97 139.68 -36 144 C-36.99 146.31 -37.98 148.62 -39 151 C-39.17 151.33 -39.17 151.33 -40 153 C-40.1 156.96 -40.13 160.92 -40.12 164.88 C-40.13 167.04 -40.13 169.2 -40.13 171.43 C-40 177 -40 177 -39 181 C-39.99 180.34 -40.98 179.68 -42 179 C-44.24 165.55 -43.8 154.5 -38 142 C-37.23 140.1 -36.47 138.21 -35.68 136.25 C-30.19 123.19 -25.69 115.06 -14 107 C-12.49 105.78 -10.99 104.57 -9.44 103.31 C-2.77 99.25 4.11 96.56 11.39 93.8 C16 92 16 92 22 89 C21.28 87.7 20.55 86.4 19.81 85.06 C18.88 83.39 17.95 81.72 17 80 C16.19 78.54 15.37 77.07 14.54 75.56 C2.09 52.59 -7.48 26.19 0 0 Z " fill="#76370F"/>
    <path d="M0 0 C1.98 0 3.96 0 6 0 C3 6 3 6 -0.56 9.94 C-4 14 -4 14 -6 21 C-6.66 21.66 -7.32 22.32 -8 23 C-6.68 23.99 -5.36 24.98 -4 26 C-5.98 26.66 -7.96 27.32 -10 28 C-8.02 28.66 -6.04 29.32 -4 30 C-4 30.66 -4 31.32 -4 32 C-0.7 32.33 2.6 32.66 6 33 C6.16 34.65 6.16 34.65 7 43 C6.34 43.33 6.34 43.33 3 45 C2.84 45.33 2.84 45.33 2 47 C-20.24 55.14 -45.98 47.65 -67 39 C-74.42 34.4 -80.11 30.34 -85 23 C-84.67 22.34 -84.34 21.68 -84 21 C-79 27 -79 27 -79 29 C-77.68 29.66 -76.36 30.32 -75 31 C-74.11 31.47 -74.11 31.47 -69.59 33.86 C-62.98 37.01 -56.59 39.2 -49.56 41.25 C-47.32 41.92 -45.07 42.58 -42.75 43.27 C-33.48 45.65 -24.25 47.09 -14.69 47.62 C-13.58 47.69 -13.58 47.69 -8 48 C-8 47.34 -8 46.68 -8 46 C-5.36 45.34 -2.72 44.68 0 44 C0 41.36 0 38.72 0 36 C-2.06 34.95 -4.12 33.9 -6.25 32.81 C-13 29 -13 29 -17 24 C-15.02 24 -13.04 24 -11 24 C-10.67 22.35 -10.34 20.7 -10 19 C-8.01 15.66 -6.01 12.33 -4 9 C-2.95 6.35 -1.93 3.69 -1 1 C-0.67 0.67 -0.34 0.34 0 0 Z " fill="#965039"/>
    <path d="M0 0 C0.33 0.17 0.33 0.17 2 1 C2 2.65 2 4.3 2 6 C-2 9 -2 9 -9 11 C-24.33 15.62 -39.34 20.97 -54.33 26.55 C-58.19 27.96 -62.05 29.35 -65.95 30.64 C-69.7 31.9 -73.36 33.44 -77 35 C-77.97 35.26 -77.97 35.26 -82.88 36.56 C-84.57 37.04 -86.26 37.51 -88 38 C-89 40 -89 40 -87.71 43.93 C-87.08 45.56 -86.46 47.19 -85.81 48.88 C-81.95 59.14 -78.19 69.23 -76 80 C-75.81 80.84 -75.81 80.84 -74.88 85.06 C-74.59 86.36 -74.3 87.66 -74 89 C-76 88 -76 88 -77.44 84.28 C-77.95 82.7 -78.47 81.13 -79 79.5 C-79.52 77.94 -80.03 76.39 -80.56 74.78 C-81.94 70.21 -82.99 65.66 -84 61 C-84.97 58.32 -85.97 55.66 -87 53 C-91.13 41.52 -91.13 41.52 -90 37 C-83.12 32.41 -75.88 30.32 -68 28 C-65.69 27.01 -63.38 26.02 -61 25 C-56 23.32 -51 21.65 -46 20 C-42.04 18.54 -38.1 17.04 -34.18 15.5 C-25.86 12.27 -17.73 9.92 -9 8 C-8.01 7.34 -7.02 6.68 -6 6 C-5.18 5.83 -5.18 5.83 -1 5 C-0.67 3.35 -0.34 1.7 0 0 Z " fill="url(#flameDeep)"/>
    <path d="M0 0 C2.86 8.58 -0.76 20.9 -4 29 C-3.34 29 -2.68 29 -2 29 C-2 29.66 -2 30.32 -2 31 C-2.66 31 -3.32 31 -4 31 C-4 31.66 -4 32.32 -4 33 C-2.02 32.01 -0.04 31.02 2 30 C6.66 29.57 11.33 29.22 16 29 C13 31 13 31 7.19 32.38 C1.72 33.81 -1.82 34.82 -6 39 C-6.37 41.66 -6.7 44.33 -7 47 C-7.99 46.34 -8.98 45.68 -10 45 C-10 42.69 -10 40.38 -10 38 C-10.33 37.34 -10.66 36.68 -11 36 C-9.68 35.34 -8.36 34.68 -7 34 C-11.29 34 -15.58 34 -20 34 C-20 34.66 -20 35.32 -20 36 C-23.3 35.67 -26.6 35.34 -30 35 C-30 34.34 -30 33.68 -30 33 C-31.61 33.21 -33.22 33.41 -34.88 33.62 C-36.57 33.75 -38.26 33.87 -40 34 C-40.66 33.34 -41.32 32.68 -42 32 C-35.5 27.67 -24.89 30 -17.31 30.12 C-11 30 -11 30 -8 28 C-7.66 23.33 -7.32 18.67 -7 14 C-6.01 12.35 -5.02 10.7 -4 9 C-3.67 7.35 -3.34 5.7 -3 4 C-2.01 2.68 -1.02 1.36 0 0 Z " fill="url(#flameHot)"/>
    <path d="M0 0 C-1.32 1.32 -2.64 2.64 -4 4 C-4.75 10.25 -4.75 10.25 -5 16 C-2.03 16 0.94 16 4 16 C4 16.33 4 16.66 4 17 C1.03 17 -1.94 17 -5 17 C-4.84 17.66 -4.84 17.66 -4 21 C-6.64 21 -9.28 21 -12 21 C-13.32 21.33 -14.64 21.66 -16 22 C-18.64 22 -21.28 22 -24 22 C-24.33 24.64 -24.66 27.28 -25 30 C-17.74 29.67 -10.48 29.34 -3 29 C-3 29.33 -3 29.66 -3 30 C-8.79 31.16 -14.16 31.21 -20.06 31.25 C-22.2 31.28 -24.33 31.3 -26.54 31.33 C-45.34 30.37 -67.63 20.37 -81 7 C-76 9 -76 9 -69.88 12.56 C-56.31 20.4 -42.78 27.54 -27 29 C-27 26.69 -27 24.38 -27 22 C-27 21.34 -27 20.68 -27 20 C-28.98 18.68 -30.96 17.36 -33 16 C-33.17 14.85 -33.17 14.85 -34 9 C-24.38 5 -24.38 5 -21 5 C-21 4.34 -21 3.68 -21 3 C-13.67 1.17 -7.6 0 0 0 Z " fill="#7A5A55"/>
    <path d="M0 0 C0 0.99 0 1.98 0 3 C-0.99 3.99 -1.98 4.98 -3 6 C-3.45 7.57 -3.91 9.13 -4.38 10.75 C-5.94 15.81 -7.6 18.99 -11 23 C-11.66 23 -12.32 23 -13 23 C-13 24.65 -13 26.3 -13 28 C-13.66 29.98 -14.32 31.96 -15 34 C-15.66 34 -16.32 34 -17 34 C-17.33 35.32 -17.66 36.64 -18 38 C-20.35 40.35 -28.35 39.69 -31.19 39.88 C-41.67 40.58 -52.11 41.47 -62.56 42.56 C-77.68 44.12 -92.78 45.39 -108 45 C-109 44 -109 44 -109.06 38.44 C-109.04 36.64 -109.02 34.85 -109 33 C-108.67 33 -108.34 33 -108 33 C-108 36.3 -108 39.6 -108 43 C-87.34 41.38 -66.67 39.74 -46.02 38 C-39.54 37.46 -33.09 36.95 -26.6 36.6 C-25.67 36.5 -25.67 36.5 -21 36 C-19 33 -19 33 -17.69 28.44 C-14.18 17.15 -8.38 8.38 0 0 Z " fill="#834527"/>
    <path d="M0 0 C-0.99 0.33 -1.98 0.66 -3 1 C-3 1.66 -3 2.32 -3 3 C-6 5 -6 5 -11.94 6.81 C-20.44 9.45 -28.36 12.42 -36 17 C-37.98 17.33 -39.96 17.66 -42 18 C-43.94 21.69 -43.94 21.69 -46 27 C-48.14 31.83 -50.45 36.35 -53 41 C-53.83 41.17 -53.83 41.17 -58 42 C-52.29 46.65 -46.92 49.5 -40 52 C-41.32 52.99 -42.64 53.98 -44 55 C-45.32 54.01 -46.64 53.02 -48 52 C-50.64 52 -53.28 52 -56 52 C-56 51.01 -56 50.02 -56 49 C-56.99 48.67 -57.98 48.34 -59 48 C-60 46 -60 46 -60 40 C-59.5 39.83 -59.5 39.83 -57 39 C-56.34 37.35 -55.68 35.7 -55 34 C-54.01 32.39 -53.02 30.78 -52 29.12 C-49 24 -49 24 -47 17 C-44 15 -44 15 -40 14.25 C-33.99 12.75 -29.41 10 -24 7 C-3.02 -1.51 -3.02 -1.51 0 0 Z " fill="#C16036"/>
    <path d="M0 0 C1.32 0.33 2.64 0.66 4 1 C2.02 1.99 0.04 2.98 -2 4 C-4.23 5.73 -6.42 7.53 -8.56 9.38 C-9.11 9.84 -9.11 9.84 -11.88 12.21 C-19.52 19.04 -19.52 19.04 -22 24 C-22.66 24 -23.32 24 -24 24 C-24.66 26.31 -25.32 28.62 -26 31 C-27.97 35.35 -29.97 39.68 -32 44 C-32.99 46.31 -33.98 48.62 -35 51 C-35.33 51.66 -35.66 52.32 -36 53 C-36.1 56.96 -36.13 60.92 -36.12 64.88 C-36.13 67.04 -36.13 69.2 -36.13 71.43 C-36 77 -36 77 -35 81 C-35.99 80.34 -36.98 79.68 -38 79 C-40.24 65.55 -39.8 54.5 -34 42 C-33.23 40.1 -32.47 38.2 -31.68 36.25 C-26.19 23.19 -21.69 15.06 -10 7 C-8.16 5.6 -6.33 4.19 -4.44 2.75 C-2.97 1.84 -1.51 0.94 0 0 Z " fill="url(#flameDeep)"/>
    <path d="M0 0 C0.5 0.17 0.5 0.17 3 1 C3 1.66 3 2.32 3 3 C4.32 3.66 5.64 4.32 7 5 C11.81 10.25 11.81 10.25 16 16 C15.67 17.98 15.34 19.96 15 22 C14.67 22 14.34 22 14 22 C13.61 20.58 13.22 19.15 12.81 17.69 C11 13 11 13 6 10 C5.18 9.01 5.18 9.01 1 4 C-0.32 4 -1.64 4 -3 4 C-4.32 5.32 -5.64 6.64 -7 8 C-12 11 -12 11 -14 11 C-14.66 12.65 -15.32 14.3 -16 16 C-20.12 18.81 -20.12 18.81 -24 21 C-24.99 20.34 -25.98 19.68 -27 19 C-28.32 18.67 -29.64 18.34 -31 18 C-30.34 16.68 -29.68 15.36 -29 14 C-27.68 14 -26.36 14 -25 14 C-23.35 12.35 -21.7 10.7 -20 9 C-14.84 6.12 -9.54 4.03 -4 2 C-2.68 1.34 -1.36 0.68 0 0 Z " fill="url(#flameHot)"/>
    <path d="M0 0 C0 1.32 0 2.64 0 4 C-0.66 4 -1.32 4 -2 4 C-2 3.34 -2 2.68 -2 2 C-3.32 1.67 -4.64 1.34 -6 1 C-7.65 0.01 -9.3 -0.98 -11 -2 C-11 -2.66 -11 -3.32 -11 -4 C-18.89 -2.87 -19.9 -1.67 -25 4 C-30 9 -30 9 -34 11 C-35.51 11.8 -37.01 12.61 -38.56 13.44 C-44 16 -49.19 17.53 -55 19 C-60 21 -60 21 -62 25 C-62.33 25.99 -62.66 26.98 -63 28 C-63.33 28 -63.66 28 -64 28 C-64.33 25.69 -64.66 23.38 -65 21 C-59.36 15.36 -52.88 13.9 -45.38 11.56 C-40.58 9.85 -36.42 7.51 -32 5 C-31.34 5 -30.68 5 -30 5 C-29.34 3.68 -28.68 2.36 -28 1 C-18.78 -10.07 -11.17 -7.44 0 0 Z " fill="#F38436"/>
    <path d="M0 0 C0.33 0 0.66 0 1 0 C1.87 16.03 -1.39 30.55 -6.21 45.83 C-10.38 59.5 -11.85 73.25 -13.31 87.44 C-13.58 89.84 -13.84 92.24 -14.11 94.72 C-15.2 104.87 -16.15 114.78 -16 125 C-16.66 125 -17.32 125 -18 125 C-18.3 113.03 -17.54 101.66 -15.92 89.8 C-15.24 84.76 -14.6 79.72 -14.02 74.67 C-13.85 73.24 -13.68 71.82 -13.5 70.35 C-13.18 67.55 -12.85 64.75 -12.53 61.95 C-11.69 54.94 -10.4 48.63 -8 42 C-7.4 39.26 -6.86 36.51 -6.38 33.75 C-5.62 29.49 -4.85 25.24 -4 21 C-3.34 20.67 -2.68 20.34 -2 20 C-0.67 13.36 -0.41 6.75 0 0 Z " fill="#7C2E0E"/>
    <path d="M0 0 C-0.33 1.32 -0.66 2.64 -1 4 C-2.51 4.1 -4.01 4.2 -5.57 4.3 C-7.55 4.45 -9.52 4.6 -11.56 4.75 C-13.52 4.89 -15.48 5.03 -17.5 5.17 C-27.01 6.6 -31.02 10.74 -37 18 C-38.28 19.44 -39.56 20.89 -40.88 22.38 C-44 26 -44 26 -45 28 C-51.19 29 -57.07 28.95 -63.31 28.69 C-84.96 28.6 -101.84 47.33 -117 61 C-117.33 61.16 -117.33 61.16 -119 62 C-114.47 52.94 -104.05 45.98 -96 40 C-94.45 38.84 -92.91 37.69 -91.31 36.5 C-78.11 27.8 -70.66 25.21 -54.81 26.24 C-47.58 25.88 -45.16 21.17 -40.31 16.12 C-28.11 4.35 -17.03 0 0 0 Z " fill="#804B32"/>
    <path d="M0 0 C0.8 17.76 -3.1 35.01 -8 52 C-12 53 -12 53 -19 50 C-19 49.34 -19 48.68 -19 48 C-20.65 47.67 -22.3 47.34 -24 47 C-28 46 -28 46 -33 41 C-33.66 40.67 -34.32 40.34 -35 40 C-35 39.34 -35 38.68 -35 38 C-36.65 37.34 -38.3 36.68 -40 36 C-41.65 34.35 -43.3 32.7 -45 31 C-47.6 28.92 -50.23 26.85 -53 25 C-51.85 24.84 -51.85 24.84 -46 24 C-45.34 22.35 -44.68 20.7 -44 19 C-40.4 15.27 -36.73 11.6 -33 8 C-31.35 6.35 -29.7 4.7 -28 3 C-23.51 0.76 -20.1 0.36 -15.12 -0.19 C-13.56 -0.37 -12 -0.55 -10.38 -0.73 C-6 -1 -6 -1 0 0 Z " fill="url(#flameDeep)"/>
    <path d="M0 0 C0.99 0.87 1.98 1.73 3 2.62 C5.64 4.85 8.35 7 11.12 9.06 C15 12 15 12 20 17 C21.65 18.32 23.3 19.64 25 21 C25 21.66 25 22.32 25 23 C25.66 23 26.32 23 27 23 C36 32 36 32 36 37 C35.01 36.01 34.02 35.02 33 34 C32.01 33.67 31.02 33.34 30 33 C28.68 31.35 27.36 29.7 26 28 C25.01 27.34 24.02 26.68 23 26 C23 25.34 23 24.68 23 24 C21.68 23.34 20.36 22.68 19 22 C15.65 18.69 12.31 15.35 9 12 C7.35 10.68 5.7 9.36 4 8 C4 7.34 4 6.68 4 6 C2.68 5.34 1.36 4.68 0 4 C-0.66 3.01 -1.32 2.02 -2 1 C-1.34 0.67 -0.68 0.34 0 0 Z " fill="url(#flameHot)"/>
    <path d="M0 0 C0.33 0 0.66 0 1 0 C1.98 3.56 2.96 7.12 3.94 10.69 C4.48 12.67 5.03 14.66 5.59 16.7 C7.72 24.72 8.23 31.82 8.31 40.12 C8.35 42.46 8.39 44.79 8.43 47.2 C8 54.01 6.68 58.76 4 65 C3.72 65.65 3.72 65.65 2.32 68.97 C-2.56 78.78 -8.13 84.55 -17 91 C-17.99 90.67 -18.98 90.34 -20 90 C-15 85 -15 85 -10.81 81.56 C-7 78 -7 78 -5 72 C-4.34 71.84 -4.34 71.84 -1 71 C-0.34 69.02 0.32 67.04 1 65 C1.34 64.15 1.34 64.15 3.06 59.88 C9.2 44.44 6.56 26.41 1.31 11.06 C0 7 0 7 0 0 Z " fill="#843B1A"/>
    <path d="M0 0 C3.3 0.99 6.6 1.98 10 3 C10 3.66 10 4.32 10 5 C10.98 5.15 10.98 5.15 15.94 5.94 C22 7 22 7 23 8 C27.52 8.57 32.04 9.08 36.56 9.56 C39.06 9.83 41.56 10.1 44.13 10.38 C46.07 10.58 48 10.79 50 11 C50 11.66 50 12.32 50 13 C55.28 13 60.56 13 66 13 C66 13.33 66 13.66 66 14 C58.09 14.84 50.89 14.95 43 14 C41.77 13.86 41.77 13.86 35.56 13.12 C23.79 11.37 13.12 8.11 2 4 C1.34 7.63 0.68 11.26 0 15 C-0.33 15 -0.66 15 -1 15 C-0.67 10.05 -0.34 5.1 0 0 Z " fill="#CB412D"/>
    <path d="M0 0 C7.82 1.12 9.39 2.84 15 8 C15.83 8.33 15.83 8.33 20 10 C20 10.66 20 11.32 20 12 C20.83 12.17 20.83 12.17 25 13 C25.16 13.33 25.16 13.33 26 15 C29.31 16.39 32.64 17.73 36 19 C36 19.33 36 19.66 36 20 C23.94 20 13.96 10.38 5 3 C4.01 2.67 3.02 2.34 2 2 C-1.23 4.42 -4.45 6.85 -7.58 9.39 C-16.24 16 -16.24 16 -20 16 C-20 15.34 -20 14.68 -20 14 C-13.25 10 -13.25 10 -11 10 C-11 9.34 -11 8.68 -11 8 C-9.93 7.42 -8.86 6.85 -7.75 6.25 C-4 4 -4 4 0 0 Z " fill="#7B3410"/>
    <path d="M0 0 C16.39 2.73 29.39 18.25 39 31 C44.47 38.71 49.77 46.53 54.88 54.48 C61.52 64.81 61.52 64.81 67 67 C68.65 67 70.3 67 72 67 C73.32 65.35 74.64 63.7 76 62 C75 67 75 67 72 70 C65 70 65 70 59 66 C56.23 62.07 53.57 58.06 51 54 C47.84 49.14 45.1 45.1 41 41 C40.34 39.35 39.68 37.7 39 36 C25.93 16.96 25.93 16.96 18 13 C16.35 11.35 14.7 9.7 13 8 C12.01 7.67 11.02 7.34 10 7 C10 6.34 10 5.68 10 5 C7.69 4.34 5.38 3.68 3 3 C2.01 2.01 1.02 1.02 0 0 Z " fill="url(#flameDeep)"/>
    <path d="M0 0 C2.13 -0.01 4.27 -0.03 6.46 -0.04 C12.06 0.19 12.06 0.19 17.06 2.19 C11.93 3.9 6.44 3.19 1.06 3.19 C-8.72 3.29 -16.38 4.1 -24.94 9.19 C-26.59 9.85 -28.24 10.51 -29.94 11.19 C-32.29 13.5 -34.62 15.84 -36.94 18.19 C-40.6 21.19 -44.27 24.19 -47.94 27.19 C-50.31 29.49 -52.66 31.8 -54.94 34.19 C-54.94 31.19 -54.94 31.19 -52.12 28.06 C-47.24 23.54 -42.09 19.4 -36.94 15.19 C-35.84 13.99 -34.75 12.79 -33.62 11.56 C-23.8 2.57 -12.98 0.04 0 0 Z " fill="url(#flameHot)"/>
    <path d="M0 0 C2.84 8.53 -0.67 21.98 -4 30 C-9.58 32.23 -13.34 32.2 -19.31 32.12 C-20.22 32.12 -20.22 32.12 -24.8 32.07 C-26.19 32.05 -27.57 32.02 -29 32 C-29 31.67 -29 31.34 -29 31 C-27.74 30.95 -26.47 30.9 -25.17 30.85 C-24.35 30.81 -24.35 30.81 -20.19 30.62 C-18.55 30.56 -16.92 30.49 -15.23 30.41 C-11 30 -11 30 -8 28 C-7.66 23.33 -7.32 18.67 -7 14 C-6.01 12.35 -5.02 10.7 -4 9 C-3.67 7.35 -3.34 5.7 -3 4 C-2.01 2.68 -1.02 1.36 0 0 Z " fill="#B97853"/>
    <path d="M0 0 C0 5.17 -3.8 8.19 -7 12 C-7.66 12 -8.32 12 -9 12 C-9.66 14.31 -10.32 16.62 -11 19 C-13.61 22.39 -13.61 22.39 -16.75 25.69 C-17.78 26.78 -18.8 27.88 -19.86 29.01 C-23 32 -23 32 -29 36 C-29.66 35.67 -30.32 35.34 -31 35 C-29.68 34.34 -28.36 33.68 -27 33 C-26.34 31.68 -25.68 30.36 -25 29 C-21.68 25.32 -18.34 21.66 -15 18 C-12.32 14.68 -9.65 11.35 -7 8 C-4.68 5.32 -2.35 2.65 0 0 Z " fill="#9D4C2B"/>
    <path d="M0 0 C0 0.33 0 0.66 0 1 C-6 1 -6 1 -11.25 -1 C-16.95 -2.98 -21.03 -3.35 -27 -3 C-26.84 -1.19 -26.84 -1.19 -26 8 C-26.66 8.33 -26.66 8.33 -30 10 C-30.33 7.69 -30.66 5.38 -31 3 C-31.66 1.35 -32.32 -0.3 -33 -2 C-35.94 -2.03 -38.87 -2.05 -41.81 -2.06 C-43.45 -2.07 -45.08 -2.09 -46.77 -2.1 C-51 -2 -51 -2 -54 -1 C-56.31 -1 -58.62 -1 -61 -1 C-44.89 -11.74 -16.26 -7.58 0 0 Z " fill="#8F4629"/>
    <path d="M0 0 C5.7 0.95 9.1 2.37 14.19 4.94 C20.8 8.14 26.65 10.09 34 11 C34.66 11.33 35.32 11.66 36 12 C39.33 12.15 42.67 12.22 46 12.25 C46.91 12.26 46.91 12.26 51.5 12.33 C61.61 11.72 68.47 8.21 77 3 C77.33 3.17 77.33 3.17 79 4 C78.34 4.66 77.68 5.32 77 6 C76.01 6 75.02 6 74 6 C74 6.99 74 7.98 74 9 C56.74 17 41.99 18.13 24 12 C15.82 8.69 7.89 4.95 0 1 C0 0.67 0 0.34 0 0 Z " fill="url(#flameDeep)"/>
    <path d="M0 0 C0.66 0.33 1.32 0.66 2 1 C-5.68 9.49 -13.56 17.69 -21.69 25.75 C-22.78 26.84 -23.88 27.93 -25.01 29.05 C-27.67 31.71 -30.33 34.35 -33 37 C-33.33 35.68 -33.66 34.36 -34 33 C-32.68 31.68 -31.36 30.36 -30 29 C-29.34 27.68 -28.68 26.36 -28 25 C-25.38 22.61 -22.7 20.29 -20 18 C-18.35 16.51 -16.7 15.03 -15 13.5 C-10.7 9.63 -6.36 5.81 -2 2 C-1.34 1.34 -0.68 0.68 0 0 Z " fill="url(#flameHot)"/>
    <path d="M0 0 C1.65 0 3.3 0 5 0 C4.34 0.33 4.34 0.33 1 2 C-1.2 4.22 -3.34 6.5 -5.44 8.81 C-19.62 24.4 -19.62 24.4 -30 27 C-32.06 27.04 -34.12 27.08 -36.25 27.12 C-43.76 28.1 -45.87 29.68 -51 35 C-52.32 35.66 -53.64 36.32 -55 37 C-55.99 36.67 -56.98 36.34 -58 36 C-48.83 28.57 -42.57 25.16 -30.92 23.61 C-18.36 21.66 -10.92 12.76 -3.19 3.38 C-2.14 2.26 -1.08 1.15 0 0 Z " fill="#6F3C1B"/>
    <path d="M0 0 C-4 2 -4 2 -8.5 2.94 C-13 4 -13 4 -17 7 C-17.24 10.67 -17.24 10.67 -16.88 15.19 C-16.81 15.99 -16.81 15.99 -16.5 20.04 C-16.03 24.71 -15.45 29.35 -14.81 34 C-14.54 36.31 -14.28 38.62 -14 41 C-14.66 41.66 -15.32 42.32 -16 43 C-19.84 33.39 -20.58 23.78 -21.44 13.55 C-21.97 9.22 -23.05 5.9 -25 2 C-24.17 2.16 -24.17 2.16 -20 3 C-6.7 0 -6.7 0 0 0 Z " fill="#D15026"/>
    <path d="M0 0 C0.83 0.17 0.83 0.17 5 1 C4.01 1.66 3.02 2.32 2 3 C0.93 7.08 -0.01 11.19 -0.88 15.31 C-4.23 30.32 -7.2 40.76 -18 52 C-20.06 54.96 -22.08 57.95 -24 61 C-24.33 60.34 -24.66 59.68 -25 59 C-22.53 54.52 -19.84 50.82 -16.44 47 C-8.85 38.17 -6.15 27.46 -3.81 16.25 C-3.47 14.63 -3.12 13 -2.77 11.33 C-2 7 -2 7 -2 2 C-1.34 1.34 -0.68 0.68 0 0 Z " fill="#6F5350"/>
    <path d="M0 0 C10.14 5.07 15.84 18.81 20 29 C21.38 37.06 18.72 42.83 15 50 C3.03 65.99 3.03 65.99 -1 68 C-0.34 66.35 0.32 64.7 1 63 C1.66 63 2.32 63 3 63 C3.66 61.68 4.32 60.36 5 59 C6.09 57.74 7.19 56.48 8.31 55.19 C13.98 47.22 17.65 38.91 16 29 C14.41 25.96 12.74 22.96 11 20 C7.99 14.69 5.41 9.63 3 4 C2.01 2.68 1.02 1.36 0 0 Z " fill="url(#flameDeep)"/>
    <path d="M0 0 C-1.56 4.69 -5.25 5.89 -9.38 8.44 C-17.67 13.56 -17.67 13.56 -21 18 C-20.34 18 -19.68 18 -19 18 C-19 18.66 -19 19.32 -19 20 C-18.18 20.33 -18.18 20.33 -14 22 C-13.67 22.66 -13.34 23.32 -13 24 C-17.77 22.09 -21.69 19.77 -26 17 C-22 12 -22 12 -17 11 C-17 10.34 -17 9.68 -17 9 C-12.11 4.31 -7.18 0 0 0 Z " fill="url(#flameHot)"/>
    <path d="M0 0 C2.26 0.49 4.51 0.98 6.84 1.48 C9.1 1.96 11.36 2.44 13.69 2.94 C19.21 4.23 19.21 4.23 21.21 5.23 C21.21 6.55 21.21 7.87 21.21 9.23 C19.13 8.78 17.04 8.33 14.9 7.86 C-3 4.08 -3 4.08 -8.79 5.23 C-12.6 10.3 -12.6 10.3 -15.79 15.23 C-16.12 14.57 -16.45 13.91 -16.79 13.23 C-8.38 -1.11 -8.38 -1.11 0 0 Z " fill="#C97350"/>
    <path d="M0 0 C0.33 0 0.66 0 1 0 C1.19 8.73 0.45 17.32 -0.38 26 C-0.51 27.46 -0.65 28.92 -0.79 30.42 C-1.75 40.63 -2.81 50.82 -4 61 C-4.66 61.17 -4.66 61.17 -8 62 C-8.4 54.7 -7.13 47.95 -5.83 40.79 C-4.46 32.87 -3.39 24.9 -2.31 16.94 C-2.09 15.3 -1.86 13.66 -1.63 11.97 C-1.08 7.98 -0.54 3.99 0 0 Z " fill="#DB5D13"/>
    <path d="M0 0 C0.66 0.33 1.32 0.66 2 1 C1.5 1.5 1.5 1.5 -1 4 C-1.66 4 -2.32 4 -3 4 C-4.91 17.12 -4.91 17.12 -5.5 22.94 C-6 27 -6 27 -8 34 C-8.33 35.32 -8.66 36.64 -9 38 C-9.66 37.67 -10.32 37.34 -11 37 C-10.12 28.11 -9.2 19.27 -7.81 10.44 C-7 5 -7 5 -8 3 C-5.36 1.93 -2.69 0.94 0 0 Z " fill="#C36836"/>
    <path d="M0 0 C5 5 5 5 6 8 C7.32 8.66 8.64 9.32 10 10 C11.79 10.94 13.57 11.89 15.41 12.86 C22.02 16.01 28.41 18.2 35.44 20.25 C37.68 20.92 39.93 21.58 42.25 22.27 C57.24 26.12 71.63 26.89 87 25 C76.36 32.09 60.53 29.75 48.69 27.44 C30.35 23.15 10.99 18.49 0 2 C0 1.34 0 0.68 0 0 Z " fill="url(#flameDeep)"/>
    <path d="M0 0 C0 0.99 0 1.98 0 3 C-0.99 3.99 -1.98 4.98 -3 6 C-3.45 7.57 -3.91 9.13 -4.38 10.75 C-5.94 15.81 -7.6 18.99 -11 23 C-11.66 23 -12.32 23 -13 23 C-13 24.65 -13 26.3 -13 28 C-13.66 29.98 -14.32 31.96 -15 34 C-15.66 34 -16.32 34 -17 34 C-16.45 19.57 -10.12 10.12 0 0 Z " fill="url(#flameHot)"/>
    <path d="M0 0 C5 5 5 5 6 8 C7.32 8.66 8.64 9.32 10 10 C12 11.01 14 12.02 16.06 13.06 C22 16 22 16 25 17 C25 17.66 25 18.32 25 19 C26.32 19.23 27.64 19.45 29 19.69 C36.52 21.33 43.68 23.64 51 26 C39.24 28.94 20.99 19.94 11 14 C5.93 10.2 3.6 7.4 0 2 C0 1.34 0 0.68 0 0 Z " fill="#703E1A"/>
    <path d="M0 0 C1.98 0.66 3.96 1.32 6 2 C9.66 3.01 13.33 4.02 17 5 C17 5.66 17 6.32 17 7 C20.94 6.88 24.88 6.76 28.81 6.62 C31.01 6.56 33.2 6.49 35.46 6.41 C41.46 6.03 47.11 5.21 53 4 C52.67 4.99 52.34 5.98 52 7 C35.1 11.83 17.87 10.22 2 3 C1.34 2.01 0.68 1.02 0 0 Z " fill="#863613"/>
    <path d="M0 0 C2.12 4.24 -0.25 10.56 -1 15 C-1.29 16.73 -1.58 18.47 -1.88 20.25 C-3 25 -3 25 -5 29.19 C-9.26 39.44 -9.26 51.02 -10 62 C-10.33 62 -10.66 62 -11 62 C-11.32 44.1 -8.91 28.17 -4 11 C-3.42 8.98 -2.84 6.96 -2.25 4.88 C-1 1 -1 1 0 0 Z " fill="#8F2E11"/>
    <path d="M0 0 C-0.99 0.33 -1.98 0.66 -3 1 C-3 1.66 -3 2.32 -3 3 C-6 5 -6 5 -11.94 6.81 C-20.44 9.45 -28.36 12.42 -36 17 C-37.65 17 -39.3 17 -41 17 C-40 15 -40 15 -35 13 C-33.35 12.07 -31.7 11.14 -30 10.19 C-5.58 -2.79 -5.58 -2.79 0 0 Z " fill="url(#flameDeep)"/>
    <path d="M0 0 C6.49 1.3 10.39 4.42 16 8 C28.59 14.94 41.23 21.71 55 26 C41.67 29.33 22.05 14.51 11 8 C9.12 7.09 7.25 6.19 5.31 5.25 C1 3 1 3 0 0 Z " fill="url(#flameHot)"/>
  </g>
  <g id="word" transform="translate(523.0,243.8) skewX(-12)">
    <text x="0" y="0" text-anchor="middle" dominant-baseline="middle"
      font-family="Anton, Impact, sans-serif" font-size="298.1"
      letter-spacing="-0.03em" fill="url(#letterFill)" stroke="#0B1524"
      stroke-width="43.22" stroke-linejoin="round" stroke-linecap="round"
      paint-order="stroke fill">Ign!te</text>
    <text x="0" y="0" text-anchor="middle" dominant-baseline="middle"
      font-family="Anton, Impact, sans-serif" font-size="298.1"
      letter-spacing="-0.03em" fill="none" stroke="#FF8A1A"
      stroke-width="9.54" stroke-linejoin="round" opacity="0.92">Ign!te</text>
  </g>
</svg>
