<?xml version="1.0" encoding="UTF-8" standalone="no"?>
<svg
   width="1024"
   height="559"
   viewBox="0 0 1024 559"
   version="1.1"
   id="svg6"
   xmlns="http://www.w3.org/2000/svg"
   xmlns:svg="http://www.w3.org/2000/svg">
  <defs
     id="defs5">
    <linearGradient
       id="letterFill"
       x1="0"
       y1="0"
       x2="0"
       y2="1">
      <stop
         offset="0%"
         stop-color="#FF5A00"
         id="stop1" />
      <stop
         offset="28%"
         stop-color="#FF8A1A"
         id="stop2" />
      <stop
         offset="55%"
         stop-color="#FFD56A"
         id="stop3" />
      <stop
         offset="80%"
         stop-color="#FFF6E8"
         id="stop4" />
      <stop
         offset="100%"
         stop-color="#E8EEF4"
         id="stop5" />
    </linearGradient>
  </defs>
  <g
     id="word"
     transform="translate(512.0,290.7) skewX(-12)">
    <path
       d="M -228.17464,81.884766 V -110.27149 h 37.1211 V 81.884766 Z m 89.15177,28.386724 q -11.35468,0 -19.54316,-1.20098 -8.0793,-1.0918 -14.5209,-4.03965 -6.4416,-2.94785 -12.8832,-8.297656 l 13.21074,-22.600196 q 14.30254,8.516015 28.60508,8.516015 9.38945,0 13.975,-6.004883 4.58555,-6.004882 4.58555,-15.612695 V 44.98203 q -4.69473,16.813673 -25.00215,16.813673 -11.68223,0 -18.88809,-5.568165 -7.20586,-5.568164 -10.48125,-15.066797 -3.27539,-9.498633 -3.27539,-21.18086 v -58.847853 q 0,-13.210743 2.83867,-23.255274 2.83867,-10.153711 9.93535,-15.831055 7.09668,-5.677344 19.87071,-5.677344 10.80879,0 16.81367,5.458984 6.11406,5.458985 8.18848,14.739259 V -81.88477 h 39.850584 V 58.520312 q 0,27.840821 -12.883204,39.741407 -12.77402,12.009771 -40.39649,12.009771 z m 4.25801,-77.954304 q 9.1711,0 9.1711,-16.595313 v -55.681642 q 0,-4.476367 -2.62032,-9.171094 -2.51113,-4.694727 -6.9875,-4.694727 -5.67734,0 -7.09668,4.258008 -1.41933,4.148829 -1.41933,9.607813 v 55.681642 q 0,5.895703 1.41933,11.245508 1.52852,5.349805 7.5334,5.349805 z m 57.598831,49.56758 V -81.88477 H -38.0797 v 20.853321 q 2.183594,-9.389454 8.079297,-15.940235 6.004883,-6.659961 16.595313,-6.659961 17.0320318,0 24.67461,10.48125 7.751758,10.48125 7.751758,28.714259 V 81.884766 H -19.519153 V -40.396488 q 0,-4.803906 -1.965234,-8.843555 -1.965234,-4.148828 -6.769141,-4.148828 -4.476367,0 -6.659961,3.166211 -2.074414,3.057031 -2.620313,7.751758 -0.545898,4.585547 -0.545898,9.171094 V 81.884766 Z M 33.38496,29.587694 25.742381,-110.27149 h 39.08633 L 57.186132,29.587694 Z M 25.742381,81.775586 V 49.240038 h 39.08633 v 32.535548 z m 79.980679,1.856055 q -15.83105,0 -21.399215,-6.659961 -5.458984,-6.769141 -5.458984,-20.634962 V -45.746293 H 67.837712 v -29.806055 h 11.027149 v -34.719142 h 37.994529 v 34.719142 h 11.02715 v 29.806055 h -11.02715 v 92.911917 q 0,4.039649 1.31016,5.677344 1.31016,1.637695 5.02227,1.637695 2.62031,0 4.69472,-0.436718 v 26.639844 q -1.31015,0.436719 -8.18847,1.637695 -6.87833,1.310157 -13.97501,1.310157 z m 73.75743,0 q -17.46875,0 -27.84082,-6.550782 -10.37207,-6.550781 -14.84844,-18.888086 -4.47637,-12.337305 -4.47637,-29.696876 v -65.835353 q 0,-22.818556 13.10156,-34.500783 13.10157,-11.791406 36.0293,-11.791406 47.16563,0 47.16563,46.292189 v 11.900586 q 0,21.6175786 -0.43672,29.0417976 H 171.40119 V 35.265038 q 0,4.367187 0.5459,8.625195 0.5459,4.148829 2.40195,6.878321 1.96524,2.729492 6.22324,2.729492 6.11407,0 7.64258,-5.240625 1.52852,-5.349805 1.52852,-13.865821 V 18.669725 h 38.86797 v 9.280274 q 0,18.342188 -4.58555,30.788672 -4.47637,12.337305 -15.28516,18.669727 -10.69961,6.223243 -29.26015,6.223243 z m -8.29766,-99.462698 h 18.56055 v -22.054298 q 0,-8.843555 -2.1836,-12.664844 -2.18359,-3.930469 -6.55078,-3.930469 -4.69472,0 -7.31504,3.71211 -2.51113,3.712109 -2.51113,12.883203 z"
       id="text5"
       style="font-size:223.6px;font-family:Anton, Impact, sans-serif;letter-spacing:-0.03em;dominant-baseline:middle;text-anchor:middle;fill:url(#letterFill);stroke:#0b1524;stroke-width:32.42;stroke-linecap:round;stroke-linejoin:round;paint-order:stroke fill"
       aria-label="Ign!te" />
    <path
       d="M -228.17464,81.884766 V -110.27149 h 37.1211 V 81.884766 Z m 89.15177,28.386724 q -11.35468,0 -19.54316,-1.20098 -8.0793,-1.0918 -14.5209,-4.03965 -6.4416,-2.94785 -12.8832,-8.297656 l 13.21074,-22.600196 q 14.30254,8.516015 28.60508,8.516015 9.38945,0 13.975,-6.004883 4.58555,-6.004882 4.58555,-15.612695 V 44.98203 q -4.69473,16.813673 -25.00215,16.813673 -11.68223,0 -18.88809,-5.568165 -7.20586,-5.568164 -10.48125,-15.066797 -3.27539,-9.498633 -3.27539,-21.18086 v -58.847853 q 0,-13.210743 2.83867,-23.255274 2.83867,-10.153711 9.93535,-15.831055 7.09668,-5.677344 19.87071,-5.677344 10.80879,0 16.81367,5.458984 6.11406,5.458985 8.18848,14.739259 V -81.88477 h 39.850584 V 58.520312 q 0,27.840821 -12.883204,39.741407 -12.77402,12.009771 -40.39649,12.009771 z m 4.25801,-77.954304 q 9.1711,0 9.1711,-16.595313 v -55.681642 q 0,-4.476367 -2.62032,-9.171094 -2.51113,-4.694727 -6.9875,-4.694727 -5.67734,0 -7.09668,4.258008 -1.41933,4.148829 -1.41933,9.607813 v 55.681642 q 0,5.895703 1.41933,11.245508 1.52852,5.349805 7.5334,5.349805 z m 57.598831,49.56758 V -81.88477 H -38.0797 v 20.853321 q 2.183594,-9.389454 8.079297,-15.940235 6.004883,-6.659961 16.595313,-6.659961 17.0320318,0 24.67461,10.48125 7.751758,10.48125 7.751758,28.714259 V 81.884766 H -19.519153 V -40.396488 q 0,-4.803906 -1.965234,-8.843555 -1.965234,-4.148828 -6.769141,-4.148828 -4.476367,0 -6.659961,3.166211 -2.074414,3.057031 -2.620313,7.751758 -0.545898,4.585547 -0.545898,9.171094 V 81.884766 Z M 33.38496,29.587694 25.742381,-110.27149 h 39.08633 L 57.186132,29.587694 Z M 25.742381,81.775586 V 49.240038 h 39.08633 v 32.535548 z m 79.980679,1.856055 q -15.83105,0 -21.399215,-6.659961 -5.458984,-6.769141 -5.458984,-20.634962 V -45.746293 H 67.837712 v -29.806055 h 11.027149 v -34.719142 h 37.994529 v 34.719142 h 11.02715 v 29.806055 h -11.02715 v 92.911917 q 0,4.039649 1.31016,5.677344 1.31016,1.637695 5.02227,1.637695 2.62031,0 4.69472,-0.436718 v 26.639844 q -1.31015,0.436719 -8.18847,1.637695 -6.87833,1.310157 -13.97501,1.310157 z m 73.75743,0 q -17.46875,0 -27.84082,-6.550782 -10.37207,-6.550781 -14.84844,-18.888086 -4.47637,-12.337305 -4.47637,-29.696876 v -65.835353 q 0,-22.818556 13.10156,-34.500783 13.10157,-11.791406 36.0293,-11.791406 47.16563,0 47.16563,46.292189 v 11.900586 q 0,21.6175786 -0.43672,29.0417976 H 171.40119 V 35.265038 q 0,4.367187 0.5459,8.625195 0.5459,4.148829 2.40195,6.878321 1.96524,2.729492 6.22324,2.729492 6.11407,0 7.64258,-5.240625 1.52852,-5.349805 1.52852,-13.865821 V 18.669725 h 38.86797 v 9.280274 q 0,18.342188 -4.58555,30.788672 -4.47637,12.337305 -15.28516,18.669727 -10.69961,6.223243 -29.26015,6.223243 z m -8.29766,-99.462698 h 18.56055 v -22.054298 q 0,-8.843555 -2.1836,-12.664844 -2.18359,-3.930469 -6.55078,-3.930469 -4.69472,0 -7.31504,3.71211 -2.51113,3.712109 -2.51113,12.883203 z"
       id="text6"
       style="font-size:223.6px;font-family:Anton, Impact, sans-serif;letter-spacing:-0.03em;dominant-baseline:middle;text-anchor:middle;opacity:0.8464;fill:none;stroke:#ff8a1a;stroke-width:7.27;stroke-linejoin:round"
       aria-label="Ign!te" />
  </g>
</svg>
