<?xml version="1.0" encoding="UTF-8"?>
<svg xmlns="http://www.w3.org/2000/svg" width="1024" height="559" viewBox="0 0 1024 559">
  <defs>
    <linearGradient id="letterFill" x1="0" y1="0" x2="0" y2="1">
      <stop offset="0%" stop-color="#FF5A00"/>
      <stop offset="30%" stop-color="#FF8A1A"/>
      <stop offset="58%" stop-color="#FFD56A"/>
      <stop offset="82%" stop-color="#FFF6E8"/>
      <stop offset="100%" stop-color="#EEF2F7"/>
    </linearGradient>
    <linearGradient id="flameGrad0" x1="0.15" y1="1" x2="0.55" y2="0">
      <stop offset="0%" stop-color="#C83200"/><stop offset="50%" stop-color="#FF5A00"/><stop offset="100%" stop-color="#FFD56A"/>
    </linearGradient>
    <linearGradient id="flameGrad1" x1="0" y1="1" x2="1" y2="0">
      <stop offset="0%" stop-color="#A81E00"/><stop offset="45%" stop-color="#FF5A00"/><stop offset="100%" stop-color="#FFE08A"/>
    </linearGradient>
    <linearGradient id="flameGrad2" x1="0.5" y1="1" x2="0.5" y2="0">
      <stop offset="0%" stop-color="#C83200"/><stop offset="55%" stop-color="#FF8A1A"/><stop offset="100%" stop-color="#FFD56A"/>
    </linearGradient>
  </defs>
  <g id="flames">
  <path d="M931.44,78.75 C925.56,79.25 920.23,79.77 915.45,80.30 C911.22,80.84 907.53,81.41 904.39,81.98 C901.80,82.58 899.75,83.19 898.25,83.81 C896.70,84.36 895.11,84.83 893.47,85.22 C891.78,85.53 890.05,85.77 888.27,85.92 C886.44,86.00 884.56,86.00 882.89,85.89 C881.42,85.67 880.16,85.34 879.09,84.91 C878.23,84.36 877.58,83.70 877.12,82.94 C876.88,82.06 876.48,81.34 875.95,80.78 C875.28,80.38 874.47,80.12 873.52,80.03 C872.42,80.09 871.19,80.31 869.81,80.69 C868.45,81.19 867.11,81.81 865.78,82.56 C864.47,83.44 863.17,84.44 861.89,85.56 C860.62,86.81 859.38,88.19 858.22,89.75 C857.16,91.50 856.19,93.44 855.31,95.56 C854.53,97.88 853.84,100.38 853.25,103.06 C852.75,105.94 852.42,108.48 852.27,110.70 C852.28,112.59 852.47,114.16 852.83,115.39 C853.36,116.30 854.06,116.88 854.94,117.12 C855.70,117.56 856.36,118.19 856.91,119.00 C857.34,120.00 857.67,121.19 857.89,122.56 C858.00,124.12 858.00,125.88 857.88,127.58 C857.62,129.23 857.25,130.84 856.75,132.41 C856.12,133.92 855.38,135.39 854.50,136.81 C853.50,138.19 852.45,139.48 851.36,140.70 C850.22,141.84 849.03,142.91 847.80,143.89 C846.52,144.80 845.19,145.62 843.81,146.38 C842.34,147.00 840.78,147.50 839.12,147.88 C837.38,148.12 835.53,148.25 833.59,148.25 C831.56,148.12 829.44,147.88 827.58,147.36 C825.98,146.58 824.66,145.53 823.59,144.22 C822.80,142.64 822.27,140.80 822.00,138.69 C822.00,136.31 821.91,134.20 821.72,132.36 C821.44,130.78 821.06,129.47 820.59,128.42 C820.03,127.64 819.38,127.12 818.62,126.88 C817.97,126.41 817.41,125.72 816.94,124.81 C816.56,123.69 816.28,122.34 816.09,120.78 C816.00,119.00 816.00,117.00 815.80,115.33 C815.39,113.98 814.78,112.97 813.97,112.28 C812.95,111.92 811.73,111.89 810.31,112.19 C808.69,112.81 807.27,113.67 806.05,114.77 C805.03,116.09 804.22,117.66 803.61,119.45 C803.20,121.48 803.00,123.75 803.00,126.25 C802.95,128.48 802.86,130.45 802.72,132.16 C802.53,133.59 802.30,134.77 802.02,135.67 C801.69,136.31 801.31,136.69 800.69,137.09 C799.81,137.53 798.69,138.00 797.31,138.50 C795.69,139.03 793.81,139.59 791.69,140.19 C789.31,140.81 787.00,141.36 784.75,141.83 C782.56,142.22 780.44,142.53 778.38,142.77 C776.38,142.92 774.44,143.00 772.56,143.00 C770.33,142.83 767.73,142.48 764.78,141.97 C761.47,141.28 757.80,140.42 753.77,139.39 C749.38,138.19 744.62,136.81 739.47,135.59 C733.91,134.53 727.94,133.62 721.56,132.88 C714.78,132.28 707.59,131.84 700.00,131.56 C692.00,131.44 684.45,131.23 677.36,130.95 C670.72,130.59 664.53,130.16 658.80,129.64 C653.52,129.05 648.69,128.38 644.31,127.62 C640.23,126.97 636.45,126.41 632.97,125.94 C629.78,125.56 626.89,125.28 624.30,125.09 C622.00,125.00 620.00,125.00 617.94,125.09 C615.81,125.28 613.62,125.56 611.38,125.94 C609.06,126.41 606.69,126.97 604.25,127.62 C601.75,128.38 598.97,129.00 595.91,129.50 C592.56,129.88 588.94,130.12 585.03,130.25 C580.84,130.25 576.38,130.12 571.62,129.88 C567.41,129.78 563.72,129.84 560.56,130.06 C557.94,130.44 555.84,130.97 554.28,131.66 C553.25,132.50 552.75,133.50 552.50,134.42 C552.50,135.27 552.75,136.03 553.25,136.72 C554.00,137.33 555.00,137.86 556.25,138.31 C557.75,138.69 559.06,139.25 560.19,140.00 C561.12,140.94 561.88,142.06 562.44,143.38 C562.81,144.88 563.00,146.56 563.00,148.44 C562.69,150.34 562.06,152.28 561.12,154.25 C559.88,156.25 558.31,158.28 556.44,160.34 C554.25,162.44 551.75,164.56 548.91,166.47 C545.72,168.16 542.19,169.62 538.31,170.88 C534.09,171.91 529.53,172.72 524.62,173.31 C519.38,173.69 514.50,174.11 510.00,174.58 C505.88,175.09 502.12,175.66 498.75,176.27 C495.75,176.92 493.12,177.62 490.88,178.38 C488.67,179.03 486.52,179.59 484.41,180.06 C482.34,180.44 480.33,180.72 478.36,180.91 C476.44,181.00 474.56,181.00 472.77,180.92 C471.05,180.77 469.41,180.53 467.84,180.22 C466.36,179.83 464.95,179.36 463.62,178.81 C462.38,178.19 460.66,177.80 458.47,177.64 C455.81,177.72 452.69,178.03 449.09,178.58 C445.03,179.36 440.50,180.38 435.50,181.62 C431.12,182.94 427.38,184.31 424.25,185.75 C421.75,187.25 419.88,188.81 418.62,190.44 C418.00,192.12 418.00,193.88 417.78,195.47 C417.34,196.91 416.69,198.19 415.81,199.31 C414.72,200.28 413.41,201.09 411.88,201.75 C410.12,202.25 408.47,203.34 406.91,205.03 C405.44,207.31 404.06,210.19 402.78,213.66 C401.59,217.72 400.50,222.38 399.50,227.62 C398.73,232.22 398.20,236.16 397.91,239.44 C397.84,242.06 398.02,244.03 398.42,245.34 C399.06,246.00 399.94,246.00 400.92,245.72 C402.02,245.16 403.22,244.31 404.53,243.19 C405.95,241.78 407.48,240.09 409.12,238.12 C410.88,235.88 412.66,233.77 414.47,231.80 C416.31,229.97 418.19,228.28 420.09,226.73 C422.03,225.33 424.00,224.06 426.00,222.94 C428.03,221.95 430.09,221.11 432.19,220.41 C434.31,219.84 436.47,219.42 438.66,219.14 C440.88,219.00 443.12,219.00 445.25,218.91 C447.25,218.72 449.12,218.44 450.88,218.06 C452.50,217.59 454.00,217.03 455.38,216.38 C456.62,215.62 458.16,214.97 459.97,214.41 C462.06,213.94 464.44,213.56 467.09,213.28 C470.03,213.09 473.25,213.00 476.75,213.00 C480.02,213.08 483.05,213.23 485.84,213.47 C488.41,213.78 490.73,214.17 492.83,214.64 C494.69,215.19 496.31,215.81 498.08,216.61 C499.98,217.58 502.03,218.72 504.22,220.03 C506.55,221.52 509.02,223.17 511.62,225.00 C514.38,227.00 516.97,229.05 519.41,231.14 C521.69,233.28 523.81,235.47 525.78,237.70 C527.59,239.98 529.25,242.31 530.75,244.69 C532.08,247.06 533.23,249.44 534.22,251.81 C535.03,254.19 535.67,256.56 536.14,258.94 C536.44,261.31 536.56,263.69 536.52,265.84 C536.30,267.78 535.91,269.50 535.34,271.00 C534.61,272.28 533.70,273.34 532.62,274.19 C531.38,274.81 530.22,275.47 529.16,276.16 C528.19,276.88 527.31,277.62 526.53,278.41 C525.84,279.22 525.25,280.06 524.75,280.94 C524.31,281.81 523.94,282.69 523.62,283.56 C523.38,284.44 523.19,285.31 523.06,286.19 C523.00,287.06 523.00,287.94 523.17,288.73 C523.52,289.45 524.03,290.09 524.72,290.66 C525.58,291.14 526.61,291.55 527.81,291.88 C529.19,292.12 530.39,292.62 531.42,293.38 C532.28,294.38 532.97,295.62 533.48,297.12 C533.83,298.88 534.00,300.88 534.00,303.12 C533.88,305.11 533.62,306.83 533.25,308.28 C532.75,309.47 532.12,310.39 531.38,311.05 C530.50,311.44 529.50,311.56 528.59,311.97 C527.78,312.66 527.06,313.62 526.44,314.88 C525.91,316.41 525.47,318.22 525.12,320.31 C524.88,322.69 524.52,324.78 524.05,326.59 C523.47,328.12 522.78,329.38 521.98,330.34 C521.08,331.03 520.06,331.44 518.94,331.56 C517.81,331.81 516.69,332.19 515.56,332.69 C514.44,333.31 513.31,334.06 512.19,334.94 C511.06,335.94 509.94,337.06 508.64,338.05 C507.17,338.89 505.53,339.59 503.72,340.16 C501.73,340.58 499.58,340.86 497.25,341.00 C494.75,341.00 492.52,340.95 490.55,340.86 C488.84,340.72 487.41,340.53 486.23,340.30 C485.33,340.02 484.69,339.69 484.31,339.31 C483.98,338.72 483.70,337.91 483.47,336.88 C483.28,335.62 483.14,334.16 483.05,332.47 C483.00,330.56 483.00,328.44 483.12,325.97 C483.38,323.16 483.75,320.00 484.25,316.50 C484.88,312.66 485.62,308.47 486.50,303.94 C487.50,299.06 488.19,294.77 488.56,291.05 C488.62,287.91 488.38,285.34 487.81,283.36 C486.94,281.95 485.75,281.12 484.25,280.88 C482.95,280.33 481.86,279.48 480.97,278.34 C480.28,276.91 479.80,275.17 479.52,273.14 C479.44,270.81 479.56,268.19 479.48,265.89 C479.20,263.92 478.72,262.28 478.03,260.97 C477.14,259.98 476.05,259.33 474.75,259.00 C473.25,259.00 471.83,259.11 470.48,259.33 C469.22,259.66 468.03,260.09 466.92,260.64 C465.89,261.30 464.94,262.06 464.06,262.94 C463.17,264.03 462.27,265.34 461.34,266.88 C460.41,268.62 459.45,270.59 458.48,272.78 C457.50,275.19 456.50,277.81 455.39,280.11 C454.17,282.08 452.84,283.72 451.41,285.03 C449.86,286.02 448.20,286.67 446.44,287.00 C444.56,287.00 442.78,287.69 441.09,289.06 C439.50,291.12 438.00,293.88 436.59,297.31 C435.28,301.44 434.06,306.25 432.94,311.75 C431.69,316.59 430.31,320.78 428.81,324.31 C427.19,327.19 425.44,329.41 423.56,330.97 C421.56,331.88 419.44,332.12 417.41,332.25 C415.47,332.25 413.62,332.12 411.88,331.88 C410.22,331.50 408.66,331.00 407.19,330.38 C405.81,329.62 404.53,328.84 403.34,328.03 C402.25,327.19 401.25,326.31 400.34,325.41 C399.53,324.47 398.81,323.50 398.19,322.50 C397.59,321.05 397.03,319.14 396.50,316.78 C396.00,313.97 395.53,310.70 395.09,306.98 C394.69,302.81 394.31,298.19 393.91,294.14 C393.47,290.67 393.00,287.78 392.50,285.47 C391.97,283.73 391.41,282.58 390.81,282.00 C390.19,282.00 389.33,283.56 388.23,286.69 C386.91,291.38 385.34,297.62 383.55,305.44 C381.52,314.81 379.25,325.75 376.75,338.25 C374.41,349.27 372.22,358.80 370.19,366.84 C368.31,373.41 366.59,378.48 365.03,382.08 C363.62,384.19 362.38,384.81 361.00,385.33 C359.50,385.73 357.88,386.03 356.12,386.22 C354.25,386.30 352.25,386.27 350.12,386.12 C347.88,385.88 346.06,384.64 344.69,382.42 C343.75,379.22 343.25,375.03 343.19,369.86 C343.56,363.70 344.38,356.56 345.62,348.44 C346.66,341.33 347.47,335.23 348.06,330.16 C348.44,326.09 348.59,323.05 348.53,321.02 C348.25,320.00 347.75,320.00 347.30,320.09 C346.89,320.28 346.53,320.56 346.22,320.94 C345.95,321.41 345.73,321.97 345.56,322.62 C345.44,323.38 345.12,324.17 344.62,325.02 C343.94,325.91 343.06,326.84 342.00,327.83 C340.75,328.86 339.31,329.94 337.69,331.06 C336.27,332.16 335.05,333.22 334.03,334.25 C333.22,335.25 332.61,336.22 332.20,337.16 C332.00,338.06 332.00,338.94 331.91,339.80 C331.72,340.64 331.44,341.47 331.06,342.28 C330.59,343.08 330.03,343.86 329.38,344.62 C328.62,345.38 327.47,346.08 325.91,346.73 C323.94,347.34 321.56,347.91 318.78,348.42 C315.59,348.89 312.00,349.31 308.00,349.69 C304.39,350.14 301.17,350.67 298.34,351.28 C295.91,351.97 293.86,352.73 292.20,353.58 C290.94,354.50 290.06,355.50 288.89,356.39 C287.42,357.17 285.66,357.84 283.59,358.41 C281.23,358.86 278.58,359.20 275.62,359.44 C272.38,359.56 269.09,359.48 265.78,359.20 C262.44,358.72 259.06,358.03 255.66,357.14 C252.22,356.05 248.75,354.75 245.25,353.25 C241.83,351.59 238.48,349.78 235.22,347.81 C232.03,345.69 228.92,343.41 225.89,340.97 C222.94,338.38 220.06,335.62 217.41,332.95 C214.97,330.36 212.75,327.84 210.75,325.41 C208.97,323.05 207.41,320.77 206.06,318.56 C204.94,316.44 203.95,314.11 203.11,311.58 C202.41,308.84 201.84,305.91 201.42,302.77 C201.14,299.42 201.00,295.88 201.00,292.12 C200.94,288.84 200.81,286.03 200.62,283.69 C200.38,281.81 200.06,280.41 199.69,279.47 C199.25,279.00 198.75,279.00 198.25,279.72 C197.75,281.16 197.25,283.31 196.75,286.19 C196.25,289.78 195.75,294.09 195.25,299.12 C194.75,304.88 194.48,310.36 194.45,315.58 C194.66,320.53 195.09,325.22 195.77,329.64 C196.67,333.80 197.81,337.69 199.19,341.31 C200.56,344.64 201.94,347.67 203.31,350.41 C204.69,352.84 206.06,354.98 207.44,356.83 C208.81,358.38 210.19,359.62 211.67,360.84 C213.27,362.03 214.97,363.19 216.78,364.31 C218.70,365.41 220.73,366.47 222.88,367.50 C225.12,368.50 227.89,369.31 231.17,369.94 C234.97,370.38 239.28,370.62 244.11,370.69 C249.45,370.56 255.31,370.25 261.69,369.75 C267.30,369.58 272.14,369.73 276.22,370.22 C279.53,371.03 282.08,372.17 283.86,373.64 C284.88,375.44 285.12,377.56 285.19,379.62 C285.06,381.62 284.75,383.56 284.25,385.44 C283.56,387.25 282.69,389.00 281.62,390.69 C280.38,392.31 279.09,393.83 277.78,395.23 C276.44,396.53 275.06,397.72 273.66,398.80 C272.22,399.77 270.75,400.62 269.25,401.38 C267.56,401.98 265.69,402.45 263.62,402.78 C261.38,402.97 258.94,403.02 256.31,402.92 C253.50,402.69 250.50,402.31 247.77,401.78 C245.30,401.09 243.09,400.25 241.16,399.25 C239.48,398.09 238.08,396.78 236.94,395.31 C236.06,393.69 234.55,392.28 232.39,391.09 C229.59,390.12 226.16,389.38 222.08,388.84 C217.36,388.53 212.00,388.44 206.00,388.56 C200.80,389.08 196.39,389.98 192.78,391.28 C189.97,392.97 187.95,395.05 186.73,397.52 C186.31,400.38 186.69,403.62 187.20,406.70 C187.86,409.61 188.66,412.34 189.59,414.91 C190.67,417.30 191.89,419.52 193.25,421.56 C194.75,423.44 196.42,425.27 198.27,427.05 C200.28,428.78 202.47,430.47 204.83,432.11 C207.36,433.70 210.06,435.25 212.94,436.75 C215.45,438.28 217.61,439.84 219.41,441.44 C220.84,443.06 221.92,444.72 222.64,446.41 C223.00,448.12 223.00,449.88 223.47,451.36 C224.41,452.58 225.81,453.53 227.69,454.22 C230.03,454.64 232.84,454.80 236.12,454.69 C239.88,454.31 243.19,454.08 246.06,453.98 C248.50,454.03 250.50,454.22 252.06,454.55 C253.19,455.02 253.88,455.62 254.12,456.38 C254.72,457.03 255.66,457.59 256.94,458.06 C258.56,458.44 260.53,458.72 262.84,458.91 C265.50,459.00 268.50,459.00 271.73,458.83 C275.20,458.48 278.91,457.97 282.84,457.28 C287.02,456.42 291.42,455.39 296.06,454.19 C300.94,452.81 305.53,451.62 309.84,450.62 C313.88,449.81 317.62,449.19 321.09,448.75 C324.28,448.50 327.19,448.44 329.81,448.56 C332.42,448.52 335.02,448.30 337.59,447.91 C340.16,447.34 342.70,446.61 345.23,445.70 C347.75,444.62 350.25,443.38 352.77,442.28 C355.30,441.34 357.84,440.56 360.41,439.94 C362.98,439.47 365.58,439.16 368.19,439.00 C370.81,439.00 373.41,439.08 375.97,439.23 C378.50,439.47 381.00,439.78 383.47,440.17 C385.91,440.64 388.31,441.19 390.69,441.81 C392.94,442.30 395.06,442.64 397.06,442.84 C398.94,442.91 400.69,442.83 402.31,442.61 C403.81,442.25 405.19,441.75 406.44,441.20 C407.56,440.61 408.56,439.97 409.44,439.28 C410.19,438.55 410.81,437.77 411.31,436.94 C411.69,436.06 412.25,435.30 413.00,434.64 C413.94,434.09 415.06,433.66 416.38,433.33 C417.88,433.11 419.56,433.00 421.44,433.00 C423.58,433.19 425.98,433.56 428.66,434.12 C431.59,434.88 434.80,435.81 438.27,436.94 C442.00,438.25 446.00,439.75 449.92,441.05 C453.77,442.14 457.53,443.03 461.22,443.72 C464.83,444.20 468.36,444.48 471.81,444.56 C475.19,444.44 478.44,444.23 481.56,443.95 C484.56,443.59 487.44,443.16 490.19,442.64 C492.81,442.05 495.31,441.38 497.69,440.62 C500.72,439.44 504.41,437.81 508.75,435.75 C513.75,433.25 519.41,430.31 525.72,426.94 C532.69,423.12 540.31,418.88 547.69,415.02 C554.81,411.55 561.69,408.47 568.31,405.78 C574.69,403.48 580.81,401.58 586.69,400.06 C592.31,398.94 597.62,397.97 602.62,397.16 C607.31,396.50 611.69,396.00 615.75,395.66 C619.50,395.47 622.94,395.44 626.06,395.56 C629.12,395.78 632.12,396.09 635.06,396.50 C637.94,397.00 640.75,397.59 643.50,398.28 C646.19,399.06 648.81,399.94 651.50,400.69 C654.25,401.31 657.06,401.81 659.94,402.19 C662.88,402.44 665.88,402.56 668.94,402.56 C672.06,402.44 675.64,402.70 679.67,403.36 C684.16,404.41 689.09,405.84 694.48,407.67 C700.33,409.89 706.62,412.50 713.38,415.50 C719.73,418.23 725.70,420.70 731.28,422.91 C736.47,424.84 741.27,426.52 745.67,427.92 C749.69,429.06 753.31,429.94 757.00,430.66 C760.75,431.22 764.56,431.62 768.44,431.88 C772.38,431.97 776.38,431.91 780.44,431.69 C784.56,431.31 788.73,430.62 792.95,429.62 C797.22,428.31 801.53,426.69 805.89,424.75 C810.30,422.50 814.75,419.94 819.25,417.06 C823.41,414.55 827.22,412.39 830.69,410.59 C833.81,409.16 836.59,408.08 839.03,407.36 C841.12,407.00 842.88,407.00 844.44,407.09 C845.81,407.28 847.00,407.56 848.00,407.94 C848.81,408.41 849.44,408.97 849.88,409.62 C850.12,410.38 850.69,410.91 851.56,411.22 C852.75,411.31 854.25,411.19 856.06,410.84 C858.19,410.28 860.62,409.50 863.38,408.50 C865.81,407.44 867.94,406.31 869.75,405.12 C871.25,403.88 872.44,402.56 873.31,401.19 C873.88,399.75 874.12,398.25 874.70,396.77 C875.61,395.30 876.84,393.84 878.41,392.41 C880.30,390.98 882.52,389.58 885.06,388.19 C887.94,386.81 890.81,385.27 893.69,383.55 C896.56,381.66 899.44,379.59 902.31,377.36 C905.19,374.95 908.06,372.38 910.94,369.62 C913.61,366.91 916.08,364.22 918.34,361.56 C920.41,358.94 922.27,356.34 923.92,353.78 C925.38,351.25 926.62,348.75 927.94,345.83 C929.31,342.48 930.75,338.72 932.25,334.53 C933.81,329.92 935.44,324.89 937.12,319.44 C938.88,313.56 940.53,307.70 942.09,301.86 C943.56,296.03 944.94,290.22 946.22,284.42 C947.41,278.64 948.50,272.88 949.50,267.12 C950.33,261.67 950.98,256.52 951.47,251.66 C951.78,247.09 951.92,242.83 951.89,238.86 C951.69,235.19 951.31,231.81 950.91,228.70 C950.47,225.86 950.00,223.28 949.50,220.97 C948.97,218.92 948.41,217.14 947.81,215.62 C947.19,214.38 946.70,212.78 946.36,210.84 C946.16,208.56 946.09,205.94 946.17,202.97 C946.39,199.66 946.75,196.00 947.25,192.00 C947.47,188.50 947.41,185.50 947.06,183.00 C946.44,181.00 945.53,179.50 944.34,178.50 C942.88,178.00 941.12,178.00 939.52,177.66 C938.05,176.97 936.72,175.94 935.53,174.56 C934.48,172.84 933.58,170.78 932.81,168.38 C932.19,165.62 931.50,163.19 930.75,161.06 C929.94,159.25 929.06,157.75 928.12,156.56 C927.12,155.69 926.06,155.12 924.94,154.88 C923.95,154.19 923.11,153.06 922.41,151.50 C921.84,149.50 921.42,147.06 921.14,144.19 C921.00,140.88 921.00,137.12 921.17,133.58 C921.52,130.23 922.03,127.09 922.72,124.16 C923.58,121.42 924.61,118.89 925.81,116.56 C927.19,114.44 928.70,112.39 930.36,110.42 C932.16,108.53 934.09,106.72 936.17,104.98 C938.39,103.33 940.75,101.75 943.25,100.25 C945.44,98.66 947.31,96.97 948.88,95.19 C950.12,93.31 951.06,91.34 951.69,89.28 C952.00,87.12 952.00,84.88 951.27,82.97 C949.80,81.41 947.59,80.19 944.66,79.31 C940.98,78.78 936.58,78.59 931.44,78.75 Z" fill="url(#flameGrad0)" opacity="0.94"/>
  <path d="M87.69,279.38 C87.31,282.62 86.77,285.50 86.05,288.00 C85.16,290.12 84.09,291.88 82.86,293.25 C81.45,294.25 79.88,294.88 78.12,295.12 C76.62,295.53 75.38,296.09 74.38,296.81 C73.62,297.69 73.12,298.72 72.88,299.91 C72.88,301.25 73.12,302.75 73.44,304.11 C73.81,305.33 74.25,306.41 74.75,307.34 C75.31,308.14 75.94,308.80 76.62,309.31 C77.38,309.69 77.94,310.62 78.31,312.12 C78.50,314.19 78.50,316.81 78.31,320.00 C77.94,323.75 77.38,328.06 76.62,332.94 C76.08,337.62 75.73,342.12 75.59,346.44 C75.66,350.56 75.92,354.50 76.39,358.25 C77.06,361.81 77.94,365.19 79.84,368.11 C82.78,370.58 86.75,372.59 91.75,374.16 C97.78,375.27 104.84,375.92 112.94,376.12 C122.06,375.88 130.17,375.02 137.27,373.55 C143.34,371.47 148.41,368.78 152.45,365.48 C155.48,361.58 157.50,357.06 158.50,351.94 C159.03,347.45 159.09,343.61 158.69,340.41 C157.81,337.84 156.47,335.92 154.66,334.64 C152.38,334.00 149.62,334.00 147.19,333.88 C145.06,333.62 143.25,333.25 141.75,332.75 C140.56,332.12 139.69,331.38 139.12,330.50 C138.88,329.50 138.45,328.58 137.86,327.73 C137.09,326.97 136.16,326.28 135.05,325.67 C133.77,325.14 132.31,324.69 130.69,324.31 C129.23,323.86 127.95,323.33 126.84,322.72 C125.91,322.03 125.14,321.27 124.55,320.42 C124.12,319.50 123.88,318.50 123.56,317.58 C123.19,316.73 122.75,315.97 122.25,315.28 C121.69,314.67 121.06,314.14 120.38,313.69 C119.62,313.31 118.97,312.77 118.41,312.05 C117.94,311.16 117.56,310.09 117.28,308.86 C117.09,307.45 117.00,305.88 117.00,304.12 C116.73,302.56 116.20,301.19 115.41,300.00 C114.34,299.00 113.02,298.19 111.42,297.56 C109.56,297.12 107.44,296.88 105.47,296.45 C103.66,295.86 102.00,295.09 100.50,294.16 C99.16,293.05 97.97,291.77 96.94,290.31 C96.06,288.69 95.30,287.03 94.64,285.34 C94.09,283.62 93.66,281.88 93.33,280.09 C93.11,278.28 93.00,276.44 93.00,274.56 C92.94,272.92 92.81,271.52 92.62,270.34 C92.38,269.41 92.06,268.70 91.69,268.23 C91.25,268.00 90.75,268.00 90.27,268.41 C89.80,269.22 89.34,270.44 88.91,272.06 C88.48,274.09 88.08,276.53 87.69,279.38 Z" fill="url(#flameGrad1)" opacity="0.94"/>
  <path d="M179.25,147.44 C172.75,147.56 166.83,148.81 161.48,151.19 C156.72,154.69 152.53,159.31 148.92,165.06 C145.89,171.94 143.44,179.94 141.56,189.06 C140.25,196.88 139.50,203.38 139.31,208.56 C139.69,212.44 140.62,215.00 142.12,216.25 C144.19,216.19 146.81,214.81 149.64,213.61 C152.67,212.58 155.91,211.72 159.34,211.03 C162.98,210.52 166.83,210.17 170.88,210.00 C175.12,210.00 179.03,209.02 182.59,207.05 C185.81,204.09 188.69,200.16 191.22,195.23 C193.41,189.33 195.25,182.44 196.75,174.56 C197.25,167.69 196.75,161.81 195.25,156.94 C192.75,153.06 189.25,150.19 184.75,148.31 Z" fill="url(#flameGrad2)" opacity="0.94"/>
  <path d="M222.00,226.75 C222.00,227.25 222.06,227.69 222.19,228.06 C222.38,228.38 222.62,228.62 222.94,228.81 C223.31,228.94 223.75,229.00 224.25,229.00 C224.97,228.77 225.91,228.30 227.06,227.59 C228.44,226.66 230.03,225.48 231.84,224.08 C233.88,222.44 236.12,220.56 238.39,218.81 C240.67,217.19 242.97,215.69 245.28,214.31 C247.61,213.06 249.95,211.94 252.31,210.94 C254.69,210.06 257.25,209.30 260.00,208.64 C262.94,208.09 266.06,207.66 269.38,207.33 C272.88,207.11 276.56,207.00 280.44,207.00 C284.09,207.06 287.53,207.19 290.75,207.38 C293.75,207.62 296.53,207.94 299.09,208.31 C301.44,208.75 303.56,209.25 305.59,209.84 C307.53,210.53 309.38,211.31 311.12,212.19 C312.78,213.16 314.34,214.22 315.81,215.38 C317.19,216.62 318.59,217.75 320.03,218.75 C321.50,219.62 323.00,220.38 324.53,221.00 C326.09,221.50 327.69,221.88 329.31,222.12 C331.02,222.67 332.80,223.52 334.66,224.66 C336.59,226.09 338.61,227.83 340.70,229.86 C342.88,232.19 345.12,234.81 347.16,237.38 C348.97,239.88 350.56,242.31 351.94,244.69 C353.09,247.00 354.03,249.25 354.75,251.44 C355.25,253.56 355.80,255.42 356.39,257.02 C357.03,258.34 357.72,259.41 358.45,260.20 C359.23,260.73 360.06,261.00 360.94,261.00 C361.88,260.09 362.88,258.28 363.94,255.56 C365.06,251.94 366.25,247.41 367.50,241.97 C368.81,235.62 370.19,228.38 370.69,222.02 C370.31,216.55 369.06,211.97 366.94,208.28 C363.94,205.48 360.06,203.58 355.31,202.56 C349.69,202.44 344.70,202.42 340.36,202.52 C336.66,202.72 333.59,203.03 331.17,203.45 C329.39,203.98 328.25,204.62 327.75,205.38 C327.08,206.03 326.23,206.59 325.22,207.06 C324.03,207.44 322.67,207.72 321.14,207.91 C319.44,208.00 317.56,208.00 315.64,207.88 C313.67,207.62 311.66,207.25 309.59,206.75 C307.48,206.12 305.33,205.38 303.12,204.50 C300.88,203.50 298.48,202.62 295.95,201.88 C293.28,201.25 290.47,200.75 287.52,200.38 C284.42,200.12 281.19,200.00 277.81,200.00 C274.47,200.14 271.16,200.42 267.88,200.84 C264.62,201.41 261.41,202.11 258.22,202.95 C255.06,203.94 251.94,205.06 248.91,206.30 C245.97,207.64 243.12,209.09 240.38,210.66 C237.72,212.33 235.16,214.11 232.69,216.00 C230.31,218.00 228.23,219.81 226.45,221.44 C224.97,222.88 223.78,224.12 222.89,225.19 Z" fill="url(#flameGrad0)" opacity="0.94"/>
  <path d="M122.9,346.6 C184.3,436.0 286.7,491.9 389.1,458.4 C471.0,514.3 593.9,480.7 675.8,402.5 C757.8,469.6 880.6,436.0 962.6,324.2 C921.6,391.3 798.7,424.8 696.3,368.9 C593.9,436.0 471.0,413.7 389.1,357.8 C307.2,413.7 204.8,391.3 122.9,346.6 Z" fill="url(#flameGrad1)" opacity="0.94"/>
  <path d="M81.9,268.3 C51.2,307.5 61.4,380.1 122.9,413.7 C163.8,368.9 153.6,307.5 143.4,268.3 C122.9,246.0 102.4,246.0 81.9,268.3 Z" fill="url(#flameGrad2)" opacity="0.94"/>
  <path d="M839.7,234.8 C921.6,212.4 983.0,268.3 1003.5,324.2 C962.6,290.7 901.1,279.5 860.2,290.7 C839.7,268.3 819.2,246.0 839.7,234.8 Z" fill="url(#flameGrad0)" opacity="0.94"/>
  </g>
  <g id="sparks" fill="#FFD56A">
    <ellipse cx="163.8" cy="156.5" rx="3.0" ry="2.0" transform="rotate(-16 163.8 156.5)"/>
    <ellipse cx="716.8" cy="111.8" rx="2.6" ry="1.7" transform="rotate(18 716.8 111.8)"/>
    <ellipse cx="921.6" cy="223.6" rx="3.2" ry="1.9" transform="rotate(-10 921.6 223.6)"/>
  </g>
  <g id="word" transform="translate(512.0,313.0) skewX(-14)">
    <text x="0" y="0" text-anchor="middle" dominant-baseline="middle"
          font-family="Anton, Impact, sans-serif" font-size="223.6"
          letter-spacing="-0.03em" fill="url(#letterFill)" stroke="#0B1524"
          stroke-width="32.42" stroke-linejoin="round" stroke-linecap="round"
          paint-order="stroke fill">Ign!te</text>
    <text x="0" y="0" text-anchor="middle" dominant-baseline="middle"
          font-family="Anton, Impact, sans-serif" font-size="223.6"
          letter-spacing="-0.03em" fill="none" stroke="#FF8A1A"
          stroke-width="7.83" stroke-linejoin="round"
          paint-order="stroke" opacity="0.95">Ign!te</text>
  </g>
</svg>
