<?xml version="1.0" encoding="UTF-8" standalone="no"?>
<svg
   width="1024"
   height="559"
   viewBox="0 0 1024 559"
   version="1.1"
   id="svg6"
   xmlns="http://www.w3.org/2000/svg"
   xmlns:svg="http://www.w3.org/2000/svg">
  <defs
     id="defs5">
    <linearGradient
       id="letterFill"
       x1="0"
       y1="0"
       x2="0"
       y2="1">
      <stop
         offset="0%"
         stop-color="#FF5A00"
         id="stop1" />
      <stop
         offset="30%"
         stop-color="#FF8A1A"
         id="stop2" />
      <stop
         offset="55%"
         stop-color="#FFD56A"
         id="stop3" />
      <stop
         offset="80%"
         stop-color="#FFF6E8"
         id="stop4" />
      <stop
         offset="100%"
         stop-color="#E8EEF4"
         id="stop5" />
    </linearGradient>
  </defs>
  <g
     transform="translate(512,302) skewX(-12)"
     id="g6">
    <path
       d="M -234.70557,84.228516 V -113.42773 h 38.1836 V 84.228516 Z m 91.70352,29.199214 q -11.67969,0 -20.10254,-1.23535 -8.31055,-1.12304 -14.93653,-4.15527 -6.62597,-3.03223 -13.25195,-8.535157 l 13.58887,-23.24707 q 14.71191,8.759765 29.42383,8.759765 9.6582,0 14.375,-6.176757 4.71679,-6.176758 4.71679,-16.059571 V 46.269531 q -4.8291,17.294922 -25.71777,17.294922 -12.0166,0 -19.42871,-5.727539 -7.41211,-5.727539 -10.78125,-15.498047 -3.36914,-9.770508 -3.36914,-21.787109 v -60.532227 q 0,-13.588867 2.91992,-23.920898 2.91992,-10.444336 10.21973,-16.28418 7.2998,-5.839844 20.43945,-5.839844 11.11816,0 17.29492,5.615235 6.28906,5.615234 8.42285,15.161133 v -18.979493 h 40.991214 V 60.195312 q 0,28.637696 -13.251954,40.878908 -13.13965,12.35351 -41.55273,12.35351 z m 4.37988,-80.185543 q 9.43359,0 9.43359,-17.070312 v -57.275391 q 0,-4.604492 -2.69531,-9.433593 -2.58301,-4.829102 -7.1875,-4.829102 -5.83984,0 -7.2998,4.379883 -1.45996,4.267578 -1.45996,9.882812 v 57.275391 q 0,6.064453 1.45996,11.567383 1.57226,5.502929 7.74902,5.502929 z m 59.247459,50.986329 V -84.228516 h 40.205078 v 21.450196 q 2.246094,-9.658203 8.310547,-16.396485 6.176758,-6.850586 17.070312,-6.850586 17.5195317,0 25.38086,10.78125 7.973633,10.78125 7.973633,29.536133 V 84.228516 h -39.643555 v -125.78125 q 0,-4.941407 -2.021484,-9.09668 -2.021485,-4.267578 -6.962891,-4.267578 -4.604492,0 -6.850586,3.256836 -2.133789,3.144531 -2.695312,7.973633 -0.561524,4.716796 -0.561524,9.433593 V 84.228516 Z M 34.340514,30.43457 26.479186,-113.42773 H 66.684264 L 58.822936,30.43457 Z M 26.479186,84.116211 V 50.649414 h 40.205078 v 33.466797 z m 82.269924,1.90918 q -16.284176,0 -22.011715,-6.850586 -5.615234,-6.962891 -5.615234,-21.225586 V -47.055664 H 69.779387 v -30.65918 h 11.342774 v -35.712886 h 39.082029 v 35.712886 h 11.34278 v 30.65918 h -11.34278 v 95.571289 q 0,4.155273 1.34766,5.839844 1.34765,1.68457 5.16601,1.68457 2.69532,0 4.82911,-0.449219 v 27.402344 q -1.34766,0.449219 -8.42286,1.68457 -7.07519,1.347657 -14.375,1.347657 z m 75.86856,0 q -17.96875,0 -28.63769,-6.738282 -10.66895,-6.738281 -15.27344,-19.428711 -4.60449,-12.690429 -4.60449,-30.546875 v -67.719726 q 0,-23.47168 13.47656,-35.488281 13.47656,-12.128907 37.06055,-12.128907 48.51562,0 48.51562,47.617188 v 12.241211 q 0,22.2363279 -0.44921,29.8730467 H 176.30713 V 36.274414 q 0,4.492188 0.56152,8.87207 0.56152,4.267578 2.4707,7.075196 2.02149,2.807617 6.40137,2.807617 6.28906,0 7.86133,-5.390625 1.57227,-5.50293 1.57227,-14.262695 V 19.204102 h 39.98046 V 28.75 q 0,18.867187 -4.71679,31.669922 -4.60449,12.69043 -15.72266,19.204101 -11.00586,6.401368 -30.09766,6.401368 z M 176.08252,-16.28418 h 19.0918 v -22.685547 q 0,-9.096679 -2.2461,-13.027343 -2.24609,-4.042969 -6.73828,-4.042969 -4.8291,0 -7.52441,3.818359 -2.58301,3.81836 -2.58301,13.251953 z"
       id="text5"
       style="font-size:230px;font-family:Anton, Impact, sans-serif;letter-spacing:-0.03em;dominant-baseline:middle;text-anchor:middle;fill:url(#letterFill);stroke:#0b1524;stroke-width:32;stroke-linecap:round;stroke-linejoin:round;paint-order:stroke fill"
       aria-label="Ign!te" />
    <path
       d="M -234.70557,84.228516 V -113.42773 h 38.1836 V 84.228516 Z m 91.70352,29.199214 q -11.67969,0 -20.10254,-1.23535 -8.31055,-1.12304 -14.93653,-4.15527 -6.62597,-3.03223 -13.25195,-8.535157 l 13.58887,-23.24707 q 14.71191,8.759765 29.42383,8.759765 9.6582,0 14.375,-6.176757 4.71679,-6.176758 4.71679,-16.059571 V 46.269531 q -4.8291,17.294922 -25.71777,17.294922 -12.0166,0 -19.42871,-5.727539 -7.41211,-5.727539 -10.78125,-15.498047 -3.36914,-9.770508 -3.36914,-21.787109 v -60.532227 q 0,-13.588867 2.91992,-23.920898 2.91992,-10.444336 10.21973,-16.28418 7.2998,-5.839844 20.43945,-5.839844 11.11816,0 17.29492,5.615235 6.28906,5.615234 8.42285,15.161133 v -18.979493 h 40.991214 V 60.195312 q 0,28.637696 -13.251954,40.878908 -13.13965,12.35351 -41.55273,12.35351 z m 4.37988,-80.185543 q 9.43359,0 9.43359,-17.070312 v -57.275391 q 0,-4.604492 -2.69531,-9.433593 -2.58301,-4.829102 -7.1875,-4.829102 -5.83984,0 -7.2998,4.379883 -1.45996,4.267578 -1.45996,9.882812 v 57.275391 q 0,6.064453 1.45996,11.567383 1.57226,5.502929 7.74902,5.502929 z m 59.247459,50.986329 V -84.228516 h 40.205078 v 21.450196 q 2.246094,-9.658203 8.310547,-16.396485 6.176758,-6.850586 17.070312,-6.850586 17.5195317,0 25.38086,10.78125 7.973633,10.78125 7.973633,29.536133 V 84.228516 h -39.643555 v -125.78125 q 0,-4.941407 -2.021484,-9.09668 -2.021485,-4.267578 -6.962891,-4.267578 -4.604492,0 -6.850586,3.256836 -2.133789,3.144531 -2.695312,7.973633 -0.561524,4.716796 -0.561524,9.433593 V 84.228516 Z M 34.340514,30.43457 26.479186,-113.42773 H 66.684264 L 58.822936,30.43457 Z M 26.479186,84.116211 V 50.649414 h 40.205078 v 33.466797 z m 82.269924,1.90918 q -16.284176,0 -22.011715,-6.850586 -5.615234,-6.962891 -5.615234,-21.225586 V -47.055664 H 69.779387 v -30.65918 h 11.342774 v -35.712886 h 39.082029 v 35.712886 h 11.34278 v 30.65918 h -11.34278 v 95.571289 q 0,4.155273 1.34766,5.839844 1.34765,1.68457 5.16601,1.68457 2.69532,0 4.82911,-0.449219 v 27.402344 q -1.34766,0.449219 -8.42286,1.68457 -7.07519,1.347657 -14.375,1.347657 z m 75.86856,0 q -17.96875,0 -28.63769,-6.738282 -10.66895,-6.738281 -15.27344,-19.428711 -4.60449,-12.690429 -4.60449,-30.546875 v -67.719726 q 0,-23.47168 13.47656,-35.488281 13.47656,-12.128907 37.06055,-12.128907 48.51562,0 48.51562,47.617188 v 12.241211 q 0,22.2363279 -0.44921,29.8730467 H 176.30713 V 36.274414 q 0,4.492188 0.56152,8.87207 0.56152,4.267578 2.4707,7.075196 2.02149,2.807617 6.40137,2.807617 6.28906,0 7.86133,-5.390625 1.57227,-5.50293 1.57227,-14.262695 V 19.204102 h 39.98046 V 28.75 q 0,18.867187 -4.71679,31.669922 -4.60449,12.69043 -15.72266,19.204101 -11.00586,6.401368 -30.09766,6.401368 z M 176.08252,-16.28418 h 19.0918 v -22.685547 q 0,-9.096679 -2.2461,-13.027343 -2.24609,-4.042969 -6.73828,-4.042969 -4.8291,0 -7.52441,3.818359 -2.58301,3.81836 -2.58301,13.251953 z"
       id="text6"
       style="font-size:230px;font-family:Anton, Impact, sans-serif;letter-spacing:-0.03em;dominant-baseline:middle;text-anchor:middle;opacity:0.8464;fill:none;stroke:#ff8a1a;stroke-width:7;stroke-linejoin:round"
       aria-label="Ign!te" />
  </g>
</svg>
